<svg xmlns="http://www.w3.org/2000/svg" viewBox="0 0 17.57 23.3"><defs><style>.cls-1{fill:#ed1b2f;}.cls-2{fill:none;stroke:#ed1b2f;stroke-linejoin:round;stroke-width:1.5px;}</style></defs><title>Asset 6</title><g id="Layer_2" data-name="Layer 2"><g id="Layer_1-2" data-name="Layer 1"><path class="cls-1" d="M255.24,796.3c1.64-1.25,3.23-2.55,4.83-3.85a33.51,33.51,0,0,1-3.16-2.49c-1.71-1.44-3.16-3.14-4.84-4.62a5.65,5.65,0,0,1-1.82-2.14.85.85,0,0,1,.67-1.14v0c1.6-.24,2.53,1,3.81,1.86,2.58,1.78,6,5.84,9.45,5.84,2.34,0,2.7,2.81,1.09,4-1.93,1.47-3.74,3.31-5.79,4.63s-3.47,3.34-5.42,4.91-4.57-.91-2.78-2.78a34.52,34.52,0,0,1,4-4.23" transform="translate(-249.43 -781.25)"/><path class="cls-2" d="M255.24,796.3c1.64-1.25,3.23-2.55,4.83-3.85a33.51,33.51,0,0,1-3.16-2.49c-1.71-1.44-3.16-3.14-4.84-4.62a5.65,5.65,0,0,1-1.82-2.14.85.85,0,0,1,.67-1.14v0c1.6-.24,2.53,1,3.81,1.86,2.58,1.78,6,5.84,9.45,5.84,2.34,0,2.7,2.81,1.09,4-1.93,1.47-3.74,3.31-5.79,4.63s-3.47,3.34-5.42,4.91-4.57-.91-2.78-2.78A34.52,34.52,0,0,1,255.24,796.3Z" transform="translate(-249.43 -781.25)"/></g></g></svg>