<svg xmlns="http://www.w3.org/2000/svg" viewBox="0 0 631 66.45"><defs><style>.cls-1{font-size:21.76px;font-family:CarleyCo-Bold, Carley Co;font-weight:700;}.cls-1,.cls-3{fill:#231f20;}.cls-2{fill:#fff;}.cls-4{fill:none;stroke:#231f20;stroke-miterlimit:2.61;stroke-width:1.41px;}</style></defs><title>Asset 1</title><g id="Layer_2" data-name="Layer 2"><g id="Layer_1-2" data-name="Layer 1"><text class="cls-1" transform="translate(0 39.93)">AS FEATURED ON</text><path class="cls-2" d="M481-1460.27a6.5,6.5,0,0,0-6.94-4.19,6.72,6.72,0,0,0-5.86,8.27,6.84,6.84,0,0,0-8.41.59c-3.85,3.86-1.79,9.08.33,10.33a6.66,6.66,0,0,0-6.84,5.49,6.73,6.73,0,0,0,6.84,8.1h42.14a6.64,6.64,0,0,0,6.56-7.39,6.57,6.57,0,0,0-7.05-6.09c2-1.08,4.56-6.2.6-10.22a6.55,6.55,0,0,0-8.57-.6,6.93,6.93,0,0,0-5.59-8.48,9,9,0,0,0-1-.06,6.55,6.55,0,0,0-6.19,4.25" transform="translate(-340 1469)"/><path class="cls-3" d="M460.49-1454.78a5.81,5.81,0,0,0,1,9.24l16,11-7.76-17.77a5.64,5.64,0,0,0-9.22-2.45" transform="translate(-340 1469)"/><path class="cls-3" d="M474.27-1463.43a5.71,5.71,0,0,0-4.77,7.88l8,18.93,2.82-19.91c.66-4.94-3.09-7.23-6.07-6.9" transform="translate(-340 1469)"/><path class="cls-3" d="M481.6-1457.28h1.51s.81,0,.92.38c-.59.49-2.22.55-2,3.15l2.55,17.13,8-19a5.77,5.77,0,0,0-4.83-7.88l-.43,0a5.64,5.64,0,0,0-5.69,6.22" transform="translate(-340 1469)"/><path class="cls-3" d="M492.23-1452.17l-7.54,17.56,16-11a5.72,5.72,0,0,0,1-8.86,5.72,5.72,0,0,0-4.13-1.73c-2,0-4.12,1.06-5.35,4.07" transform="translate(-340 1469)"/><path class="cls-3" d="M498.89-1443.15l-15,10.49h18.5c3.79,0,6.23-3.91,5.15-7.5a5.78,5.78,0,0,0-5.37-4,5.93,5.93,0,0,0-3.26,1" transform="translate(-340 1469)"/><path class="cls-3" d="M460.06-1432.66h18.23l-15-10.49c-3.47-2.23-7.37-.92-8.78,2.78a5.84,5.84,0,0,0,5.58,7.71" transform="translate(-340 1469)"/><path class="cls-3" d="M476.39-1428.9v18.48h9a5.05,5.05,0,0,0,4.66-4.92,5.29,5.29,0,0,0-3.1-4.92,4.62,4.62,0,0,0,2.1-4,4.74,4.74,0,0,0-4.71-4.6Zm3.8,3.12H483a2.11,2.11,0,0,1,2.07,2.06,2.2,2.2,0,0,1-1.95,2.28h-2.91Zm.05,7.48h3.39a2.34,2.34,0,0,1,2.15,2.33,2.45,2.45,0,0,1-2.2,2.44h-3.34Z" transform="translate(-340 1469)"/><polygon class="cls-3" points="122.64 58.58 122.64 47.94 134.26 59.28 134.26 40.1 130.35 40.1 130.35 50.47 118.73 39.35 118.73 58.58 122.64 58.58"/><path class="cls-3" d="M490.64-1419.86c.1,5.85,4.3,10.21,9.69,10.21a11.16,11.16,0,0,0,4-.77v-3.76a6.78,6.78,0,0,1-3.5,1c-3.27,0-6.35-2.42-6.22-6.82a6.36,6.36,0,0,1,6.29-6,6.24,6.24,0,0,1,3.43,1.06v-3.66a10,10,0,0,0-3.77-.75,10.06,10.06,0,0,0-9.93,9.53" transform="translate(-340 1469)"/><path class="cls-3" d="M560.75-1463.88a27.28,27.28,0,0,0-27.23,27.33,27.26,27.26,0,0,0,27.23,27.22,27.28,27.28,0,0,0,27.33-27.22,27.3,27.3,0,0,0-27.33-27.33" transform="translate(-340 1469)"/><path class="cls-2" d="M551.43-1429.72h-3v-1.55a6.1,6.1,0,0,1-4.14,1.55c-2.9,0-4.66-.93-5.8-2.28a7.63,7.63,0,0,1-1.76-4.55,7.26,7.26,0,0,1,1.87-5.07,7.37,7.37,0,0,1,5.79-2.39,6.94,6.94,0,0,1,7,7.35Z" transform="translate(-340 1469)"/><path class="cls-2" d="M566.75-1431.58a7.15,7.15,0,0,1-5.17,2.38,8.2,8.2,0,0,1-5.7-2.18,7.4,7.4,0,0,1-2.07-5.48v-11.39h3.32v6.21l.1-.1a5.81,5.81,0,0,1,3.93-1.66,7.27,7.27,0,0,1,7.35,7.14,9.09,9.09,0,0,1-1.76,5.08" transform="translate(-340 1469)"/><path class="cls-2" d="M577.73-1429.2a7.32,7.32,0,0,1-5.08-2.18,7.12,7.12,0,0,1-2.27-5.38,7.37,7.37,0,0,1,7.35-7.35,7.24,7.24,0,0,1,6.93,5.07h-3.73a3.53,3.53,0,0,0-3.31-1.76,3.83,3.83,0,0,0-3.93,4,4.05,4.05,0,0,0,4.14,4.24,3.87,3.87,0,0,0,3.1-1.76h3.73a7.33,7.33,0,0,1-6.93,5.08" transform="translate(-340 1469)"/><path class="cls-3" d="M544.19-1441a4.11,4.11,0,0,0-4.15,4.24,4,4,0,0,0,4.15,4,4,4,0,0,0,4.14-4.14,4,4,0,0,0-4.14-4.14" transform="translate(-340 1469)"/><path class="cls-3" d="M561.47-1440.59a4.09,4.09,0,0,0-4.24,4,4.2,4.2,0,0,0,4.24,4.24,3.9,3.9,0,0,0,3.94-4,4,4,0,0,0-3.94-4.24" transform="translate(-340 1469)"/><rect class="cls-2" x="272.76" width="66.44" height="66.45"/><rect class="cls-3" x="277.33" y="5.35" width="57.31" height="45.69"/><path class="cls-3" d="M617.33-1457.44a50.35,50.35,0,0,1,12.7-2.43,45.52,45.52,0,0,1,44.61,28.66v-1.08A46.32,46.32,0,0,0,630-1460.41a50.35,50.35,0,0,0-12.7,2.43Z" transform="translate(-340 1469)"/><rect class="cls-3" x="277.33" y="52.11" width="57.31" height="7.3"/><path class="cls-2" d="M621.38-1410.67c-1.35,0-2.43-.54-2.43-1.89,0-1.08,1.08-1.89,2.7-1.89,1.35,0,2.17.54,2.44,1.35h-1.9c0-.27-.27-.27-.54-.27-.81,0-1.08.27-1.08.81,0,.81.27,1.08,1.08,1.08.27,0,.54-.27.81-.54h1.63c-.27.81-1.09,1.35-2.71,1.35" transform="translate(-340 1469)"/><path class="cls-2" d="M638.68-1412.29c-.54.27-.81.27-.81.54s.27.27.81.27.81,0,.81-.54v-.27Zm1.09,1.62v-.54a2.31,2.31,0,0,1-1.9.54c-.81,0-1.62-.27-1.62-1.08,0-.54.54-.81,1.62-1.08,1.08,0,1.62,0,1.62-.27s0-.54-.54-.54-.81.27-.81.54h-1.62c.27-.81,1.08-1.08,2.43-1.08.82,0,1.63,0,1.9.27a1.62,1.62,0,0,1,.27,1.08v1.35a.94.94,0,0,0,.27.54v.27Z" transform="translate(-340 1469)"/><path class="cls-2" d="M645.44-1414.18h1.62v.54c.27-.54.82-.54,1.63-.54,1.08,0,1.62.27,1.62,1.08v2.43h-1.62v-1.89c0-.54,0-.81-.81-.81a.72.72,0,0,0-.82.81v1.89h-1.62Z" transform="translate(-340 1469)"/><path class="cls-2" d="M627.87-1415.53h1.62v1.89c.27-.54.81-.54,1.62-.54,1.09,0,1.63.27,1.63,1.08v2.43h-1.63v-1.89c0-.54,0-.81-.81-.81a.72.72,0,0,0-.81.81v1.89h-1.62Z" transform="translate(-340 1469)"/><path class="cls-2" d="M654.09-1414.18h1.63v.54a2,2,0,0,1,1.62-.54c1.35,0,1.89.27,1.89,1.08v2.43h-1.89v-1.89c0-.54,0-.81-.54-.81a.72.72,0,0,0-.81.81v1.89h-1.9Z" transform="translate(-340 1469)"/><path class="cls-2" d="M666.53-1412.83c0-.54-.27-.81-1.08-.81a.72.72,0,0,0-.81.81Zm1.62,1.08c-.27.81-1.35,1.08-2.7,1.08-1.62,0-2.71-.54-2.71-1.89,0-1.08,1.09-1.89,2.71-1.89s2.7.81,2.7,2.16h-3.51a.72.72,0,0,0,.81.81c.54,0,.81,0,1.08-.27Z" transform="translate(-340 1469)"/><rect class="cls-2" x="331.4" y="53.47" width="1.89" height="4.87"/><polygon class="cls-2" points="277.33 51.03 277.33 51.03 293.28 5.08 286.79 5.08 277.33 50.22 277.33 51.03"/><polygon class="cls-2" points="277.6 51.03 306.8 5.08 299.5 5.08 277.6 51.03"/><polygon class="cls-3" points="296.93 32.78 296.93 18.19 305.84 18.19 306.1 22.17 301.13 22.17 301.13 24.03 305.32 24.03 305.32 28.01 301.13 28.01 301.13 32.78 296.93 32.78"/><polygon class="cls-4" points="296.93 32.78 296.93 18.19 305.84 18.19 306.1 22.17 301.13 22.17 301.13 24.03 305.32 24.03 305.32 28.01 301.13 28.01 301.13 32.78 296.93 32.78"/><polygon class="cls-3" points="332.5 32.78 328.06 25.09 332.23 18.19 327.54 18.19 325.98 21.38 324.16 18.19 319.47 18.19 323.64 25.36 319.47 32.78 323.9 32.78 325.98 29.07 328.06 32.78 332.5 32.78"/><polygon class="cls-4" points="332.5 32.78 328.06 25.09 332.23 18.19 327.54 18.19 325.98 21.38 324.16 18.19 319.47 18.19 323.64 25.36 319.47 32.78 323.9 32.78 325.98 29.07 328.06 32.78 332.5 32.78"/><path class="cls-3" d="M646.4-1443.38a7.41,7.41,0,0,1,7.42-7.43,7.59,7.59,0,0,1,7.43,7.43,7.36,7.36,0,0,1-7.43,7.16,7.19,7.19,0,0,1-7.42-7.16m8.48,2.92.27-6.1a1.42,1.42,0,0,0-1.33-1.33,1.25,1.25,0,0,0-1.32,1.33v6.1a1.25,1.25,0,0,0,1.32,1.32,1.21,1.21,0,0,0,1.06-1.32" transform="translate(-340 1469)"/><path class="cls-4" d="M646.4-1443.38a7.41,7.41,0,0,1,7.42-7.43,7.59,7.59,0,0,1,7.43,7.43,7.36,7.36,0,0,1-7.43,7.16A7.19,7.19,0,0,1,646.4-1443.38Zm8.48,2.92.27-6.1a1.42,1.42,0,0,0-1.33-1.33,1.25,1.25,0,0,0-1.32,1.33v6.1a1.25,1.25,0,0,0,1.32,1.32A1.21,1.21,0,0,0,654.88-1440.46Z" transform="translate(-340 1469)"/><polygon class="cls-2" points="296.79 32.92 296.79 18.05 305.98 18.05 306.25 22.11 301.12 22.11 301.12 24 305.44 24 305.44 28.05 301.12 28.05 301.12 32.92 296.79 32.92"/><polygon class="cls-2" points="332.75 32.92 328.15 25.08 332.48 18.05 327.61 18.05 325.99 21.3 324.1 18.05 319.23 18.05 323.56 25.35 319.23 32.92 323.83 32.92 325.99 29.14 328.15 32.92 332.75 32.92"/><path class="cls-2" d="M646.25-1443.38a7.56,7.56,0,0,1,7.57-7.57,7.74,7.74,0,0,1,7.57,7.57,7.5,7.5,0,0,1-7.57,7.3,7.33,7.33,0,0,1-7.57-7.3m8.65,3,.27-6.22a1.45,1.45,0,0,0-1.35-1.35,1.28,1.28,0,0,0-1.35,1.35v6.22a1.28,1.28,0,0,0,1.35,1.35,1.24,1.24,0,0,0,1.08-1.35" transform="translate(-340 1469)"/><polygon class="cls-3" points="298.56 35.49 306.92 35.49 306.92 38.67 301.69 38.67 301.69 40.52 306.14 40.52 306.14 43.44 301.69 43.44 301.69 45.55 306.92 45.55 306.92 48.73 298.56 48.73 298.56 35.49"/><polygon class="cls-4" points="298.56 35.49 306.92 35.49 306.92 38.67 301.69 38.67 301.69 40.52 306.14 40.52 306.14 43.44 301.69 43.44 301.69 45.55 306.92 45.55 306.92 48.73 298.56 48.73 298.56 35.49"/><polygon class="cls-3" points="308.02 35.49 311.19 35.49 312.78 43.17 314.37 35.49 317.29 35.49 318.87 43.17 320.46 35.49 323.38 35.49 320.2 48.73 317.29 48.73 315.7 41.05 314.11 48.73 310.93 48.73 308.02 35.49"/><polygon class="cls-4" points="308.02 35.49 311.19 35.49 312.78 43.17 314.37 35.49 317.29 35.49 318.87 43.17 320.46 35.49 323.38 35.49 320.2 48.73 317.29 48.73 315.7 41.05 314.11 48.73 310.93 48.73 308.02 35.49"/><path class="cls-3" d="M666.06-1425a2.09,2.09,0,0,0,2.36,1.86,1,1,0,0,0,1.05-1.06c0-1.06-.79-.8-2.1-1.33-2.62-.79-3.94-1.85-3.94-4,0-2.65,1.84-4.5,5-4.5a4.72,4.72,0,0,1,4.46,3.44l-2.88.79c-.53-.79-1-1.32-1.84-1.32a1.2,1.2,0,0,0-1.31,1.06c0,.79.78.79,2.1,1.32a6.72,6.72,0,0,1,3.15,1.33,4.09,4.09,0,0,1,1,2.65,5.6,5.6,0,0,1-1,2.91,5.33,5.33,0,0,1-3.94,1.59c-2.89,0-4.73-1.32-5.25-4Z" transform="translate(-340 1469)"/><path class="cls-4" d="M666.06-1425a2.09,2.09,0,0,0,2.36,1.86,1,1,0,0,0,1.05-1.06c0-1.06-.79-.8-2.1-1.33-2.62-.79-3.94-1.85-3.94-4,0-2.65,1.84-4.5,5-4.5a4.72,4.72,0,0,1,4.46,3.44l-2.88.79c-.53-.79-1-1.32-1.84-1.32a1.2,1.2,0,0,0-1.31,1.06c0,.79.78.79,2.1,1.32a6.72,6.72,0,0,1,3.15,1.33,4.09,4.09,0,0,1,1,2.65,5.6,5.6,0,0,1-1,2.91,5.33,5.33,0,0,1-3.94,1.59c-2.89,0-4.73-1.32-5.25-4Z" transform="translate(-340 1469)"/><polygon class="cls-3" points="294.04 35.49 294.04 42.11 290.08 35.49 286.39 35.49 286.39 48.73 289.55 48.73 289.55 41.05 294.3 48.73 297.46 48.73 297.46 35.49 294.04 35.49"/><polygon class="cls-4" points="294.04 35.49 294.04 42.11 290.08 35.49 286.39 35.49 286.39 48.73 289.55 48.73 289.55 41.05 294.3 48.73 297.46 48.73 297.46 35.49 294.04 35.49"/><polygon class="cls-2" points="298.41 35.35 307.06 35.35 307.06 38.6 301.66 38.6 301.66 40.49 306.25 40.49 306.25 43.47 301.66 43.47 301.66 45.63 307.06 45.63 307.06 48.87 298.41 48.87 298.41 35.35"/><polygon class="cls-2" points="307.88 35.35 311.12 35.35 312.74 43.19 314.36 35.35 317.34 35.35 318.96 43.19 320.58 35.35 323.56 35.35 320.31 48.87 317.34 48.87 315.72 41.03 314.09 48.87 310.85 48.87 307.88 35.35"/><path class="cls-2" d="M666-1425a2.15,2.15,0,0,0,2.43,1.89,1,1,0,0,0,1.08-1.08c0-1.09-.81-.81-2.16-1.36-2.7-.81-4.05-1.89-4.05-4,0-2.7,1.89-4.6,5.13-4.6a4.88,4.88,0,0,1,4.6,3.52l-3,.81c-.54-.81-1.08-1.35-1.89-1.35a1.24,1.24,0,0,0-1.35,1.08c0,.81.81.81,2.16,1.35a8.42,8.42,0,0,1,3.25,1.35,4.13,4.13,0,0,1,1.08,2.71,5.66,5.66,0,0,1-1.08,3,5.53,5.53,0,0,1-4.06,1.62c-3,0-4.86-1.35-5.41-4Z" transform="translate(-340 1469)"/><polygon class="cls-2" points="294.09 35.35 294.09 42.11 290.03 35.35 286.25 35.35 286.25 48.87 289.49 48.87 289.49 41.03 294.36 48.87 297.6 48.87 297.6 35.35 294.09 35.35"/><path class="cls-3" d="M715.66-1457.08h-3.45v-.25h.18c.23,0,.36-.11.36-.39v-5.45c0-.28-.13-.39-.36-.39h-.19v-.25h3.46v2.31h-.23v0c0-1.38-.42-2-1.18-2h-.57v2.8h.14c.44,0,.64-.42.64-1.28v0h.23v2.91h-.23c0-.85-.2-1.29-.64-1.29h-.14v3.05h.53c.76,0,1.22-.74,1.22-2v0h.23Z" transform="translate(-340 1469)"/><path class="cls-3" d="M712-1457.08h-2v-.25h.17a.34.34,0,0,0,.37-.39v-2.64H709v2.64c0,.28.14.39.37.39h.18v.25h-2v-.25h.18c.23,0,.37-.11.37-.39v-5.45c0-.28-.14-.39-.37-.39h-.18v-.25h2v.25h-.18c-.23,0-.37.11-.37.39v2.45h1.48v-2.45a.34.34,0,0,0-.37-.39H710v-.25h2v.25h-.17c-.23,0-.37.11-.37.39v5.45c0,.28.14.39.37.39H712Z" transform="translate(-340 1469)"/><path class="cls-3" d="M707.44-1461.48h-.22v0c0-1.08-.42-2-.9-2h-.2v5.8c0,.28.14.39.37.39h.21v.25h-2.08v-.25h.2c.23,0,.37-.11.37-.39v-5.8H705c-.48,0-.89.87-.89,2v0h-.23v-2.33h3.55Z" transform="translate(-340 1469)"/><path class="cls-3" d="M732.84-1457.08h-3.4v-.25h.23c.23,0,.37-.1.37-.38v-5.47c0-.28-.14-.38-.37-.38h-.18v-.25h2v.25h-.16a.33.33,0,0,0-.38.38v5.81h.5c.91,0,1.15-1,1.15-2v0h.23Z" transform="translate(-340 1469)"/><path class="cls-3" d="M729.32-1457.08h-3.4l.13-.25h.1c.23,0,.37-.1.37-.38v-5.47c0-.28-.14-.38-.37-.38H726v-.25h2v.25h-.16a.33.33,0,0,0-.38.38v5.81h.5c.91,0,1.15-1,1.15-2v0h.23Z" transform="translate(-340 1469)"/><path class="cls-3" d="M723.22-1463.56h-.07c-.33,0-.49.06-.61.61l-1.23,5.92h-.38l-.77-3.87h0l-.78,3.87H719l-1.21-6.07c-.08-.39-.19-.46-.53-.46h0v-.25h1.83v.25h0c-.26,0-.33.09-.33.27a.81.81,0,0,0,0,.15l.77,4.11h0l.5-2.7-.26-1.37c-.06-.34-.14-.46-.41-.46h0v-.25h1.8v.25h0c-.34,0-.41.11-.41.34a.76.76,0,0,0,0,.21l.77,3.93h0l.73-3.93a1,1,0,0,0,0-.16c0-.27-.09-.39-.45-.39h0v-.25h1.53Z" transform="translate(-340 1469)"/><path class="cls-3" d="M726.08-1457.08h-1.92v-.25h.05c.35,0,.46-.09.46-.29a.81.81,0,0,0,0-.2l-.16-.89h-1.15l-.16.89a1.68,1.68,0,0,0,0,.2c0,.21.08.29.43.29h0v.25h-1.44v-.25h.08c.29,0,.46-.07.54-.47l1.17-6.08h.43l1.21,6.06c.07.37.26.49.42.49h.06Zm-1.67-1.94-.5-3h0l-.51,3Z" transform="translate(-340 1469)"/><path class="cls-3" d="M756.72-1461.48h-.23v0c0-1.08-.41-2-.89-2h-.21v5.8a.34.34,0,0,0,.38.39H756v.25H753.9v-.25h.19a.34.34,0,0,0,.38-.39v-5.8h-.18c-.48,0-.9.87-.9,2v0h-.22v-2.33h3.55Z" transform="translate(-340 1469)"/><path class="cls-3" d="M752.87-1457.08h-3.44v-.25h.17c.23,0,.37-.11.37-.39v-5.45c0-.28-.14-.39-.37-.39h-.18v-.25h3.45v2.31h-.23v0c0-1.38-.42-2-1.18-2h-.56v2.8H751c.43,0,.63-.42.63-1.28v0h.23v2.91h-.23c0-.85-.19-1.29-.63-1.29h-.14v3.05h.53c.75,0,1.21-.74,1.21-2v0h.23Z" transform="translate(-340 1469)"/><path class="cls-3" d="M749.19-1457.08h-3.44v-.25h.17c.23,0,.37-.11.37-.39v-5.45c0-.28-.14-.39-.37-.39h-.18v-.25h3.45v2.31H749v0c0-1.38-.42-2-1.18-2h-.57v2.8h.15c.43,0,.63-.42.63-1.28v0h.23v2.91H748c0-.85-.19-1.29-.63-1.29h-.15v3.05h.54c.75,0,1.21-.74,1.21-2v0h.23Z" transform="translate(-340 1469)"/><path class="cls-3" d="M741.42-1461.48h-.23v0c0-1.08-.41-2-.9-2h-.2v5.8c0,.28.14.39.37.39h.21v.25H738.6v-.25h.19c.23,0,.37-.11.37-.39v-5.8H739c-.48,0-.89.87-.89,2v0h-.23v-2.33h3.56Z" transform="translate(-340 1469)"/><path class="cls-3" d="M737.85-1458.71a1.49,1.49,0,0,1-1.57,1.68,1.84,1.84,0,0,1-1.19-.4l-.16.35h-.17v-2.31H735v.06c0,1.63.82,2,1.24,2,.62,0,.9-.36.9-1.07a2.39,2.39,0,0,0-1.19-1.87,2.51,2.51,0,0,1-1.23-2,1.38,1.38,0,0,1,1.38-1.54,1.51,1.51,0,0,1,1.08.39l.17-.33h.17v2.33h-.23v-.07c0-1.26-.38-2-1.13-2-.48,0-.73.33-.73.87s.38,1,1.08,1.53a2.85,2.85,0,0,1,1.36,2.45" transform="translate(-340 1469)"/><path class="cls-3" d="M745.69-1458c0,.57-.22,1-.77,1s-.79-.41-.83-1.24l-.06-1.26c0-.66-.28-.84-.66-.84h-.25v2.65c0,.28.11.39.34.39h.23v.25h-2.06v-.25h.2c.23,0,.37-.11.37-.39v-5.45c0-.28-.14-.39-.37-.39h-.2v-.25h1.85c1.12,0,1.82.57,1.82,1.63a1.63,1.63,0,0,1-1.46,1.67h0a1.19,1.19,0,0,1,1.1,1.11l.08,1.48c0,.29.05.38.19.38s.2-.13.2-.57v-.24h.28Zm-1.36-4.16c0-1.06-.42-1.36-1-1.36h-.22v2.84h.25c.6,0,1-.41,1-1.48" transform="translate(-340 1469)"/><path class="cls-3" d="M783.35-1457.08H780l.14-.25h.1c.23,0,.37-.1.37-.38v-5.47c0-.28-.14-.38-.37-.38H780v-.25h2v.25h-.16c-.23,0-.37.1-.37.38v5.81h.5c.91,0,1.15-1,1.15-2v0h.22Z" transform="translate(-340 1469)"/><path class="cls-3" d="M784.53-1457.49a.44.44,0,0,1-.39.46.44.44,0,0,1-.39-.46.44.44,0,0,1,.39-.46.44.44,0,0,1,.39.46" transform="translate(-340 1469)"/><path class="cls-3" d="M776.55-1463.56h-.18c-.21,0-.38.16-.38.49v6h-.33l-2.11-5.31h0v4.54c0,.33.17.49.38.49h.17v.25h-1.43v-.25h.19c.22,0,.38-.16.38-.49v-5.32c0-.24-.09-.42-.33-.42h-.24v-.25H774l1.71,4.33h0v-3.59c0-.33-.17-.49-.38-.49h-.18v-.25h1.42Z" transform="translate(-340 1469)"/><path class="cls-3" d="M768.79-1463.56h-.35c-.21,0-.34.18-.34.49v4.48c0,.9-.3,1.56-1.26,1.56a1.48,1.48,0,0,1-1.63-1.56v-4.58c0-.28-.14-.39-.37-.39h-.18v-.25h2v.25h-.12c-.23,0-.37.11-.37.39v4.64c0,.76.3,1.2.81,1.2s.84-.37.84-1.2v-4.54c0-.31-.12-.49-.33-.49h-.19v-.25h1.52Z" transform="translate(-340 1469)"/><path class="cls-3" d="M761.16-1463.56H761a.34.34,0,0,0-.37.39v4.69a1.33,1.33,0,0,1-1.51,1.45,1.29,1.29,0,0,1-1.21-1.45c0-.51.31-.73.57-.73a.46.46,0,0,1,.46.51.58.58,0,0,1-.55.62.74.74,0,0,0,.72.75c.44,0,.59-.24.59-1v-4.87c0-.28-.13-.39-.36-.39h-.18v-.25h2Z" transform="translate(-340 1469)"/><path class="cls-3" d="M780.11-1457.08H778.2v-.25h0c.35,0,.45-.09.45-.29a1.68,1.68,0,0,0,0-.2l-.16-.89h-1.15l-.16.89a2,2,0,0,0,0,.2c0,.21.09.29.43.29h0v.25h-1.44v-.25h.07c.3,0,.47-.07.54-.47l1.17-6.08h.43l1.21,6.06c.08.37.26.49.42.49h.06Zm-1.66-1.94-.51-3h0l-.51,3Z" transform="translate(-340 1469)"/><path class="cls-3" d="M772.64-1458c0,.57-.21,1-.77,1s-.78-.41-.82-1.24l-.06-1.26c0-.67-.29-.84-.67-.84h-.24v2.65c0,.28.11.39.33.39h.24v.25h-2.06v-.25h.2a.34.34,0,0,0,.37-.39v-5.45a.34.34,0,0,0-.37-.39h-.2v-.25h1.85c1.12,0,1.81.57,1.81,1.63a1.62,1.62,0,0,1-1.46,1.67h0a1.19,1.19,0,0,1,1.11,1.11l.08,1.48c0,.29,0,.38.18.38s.2-.13.2-.57v-.24h.28Zm-1.36-4.16c0-1.06-.41-1.36-1-1.36h-.22v2.84h.25c.6,0,.95-.41.95-1.48" transform="translate(-340 1469)"/><path class="cls-3" d="M764.67-1460.46c0,1.91-.62,3.43-1.78,3.43s-1.75-1.52-1.75-3.43.6-3.4,1.75-3.4,1.78,1.48,1.78,3.4m-1,1.6V-1462c0-1.16-.26-1.51-.74-1.51s-.71.33-.71,1.53v3.16c0,1.12.21,1.54.71,1.54s.74-.45.74-1.53" transform="translate(-340 1469)"/><path class="cls-3" d="M706.22-1449.88l-2.16-.33h-.17v-1.67h11.63v1.67h-.32c-1.33-.17-2,.33-2,1.66v.83l5,25.61,3-16.8-1.66-8.47c-.33-2.16-1.16-3-2.66-2.83h-.17v-1.67H728v1.67h-.16c-1.83-.17-2.67.5-2.67,2l5,25.93h.33l4.5-24.61v-1c0-1.83-.84-2.5-2.67-2.33h-.49v-1.67h9.8v1.67h-.5l-2.33.33-1.49,3.32-7.81,37.08h-2.33l-4.82-24.27-5,24.27h-2.5l-7.48-37.9Z" transform="translate(-340 1469)"/><path class="cls-3" d="M758.92-1452.37v14.63h-1.49v-.5q0-12.46-7-12.47c-3.16-.16-4.82,1.5-4.66,5.16a9.17,9.17,0,0,0,1.66,5.32l5,4.49,6.15,6.15a16.29,16.29,0,0,1,2.5,9.14c0,7-3.33,10.48-9.81,10.48a12.46,12.46,0,0,1-7.48-2.67l-1,2.5h-1.16v-14.8H743v.5c0,4.49,1,7.82,2.83,10.14a6.65,6.65,0,0,0,5,2.5c3.82,0,5.82-2.16,5.82-6.66q0-6.22-7.49-12c-5.15-3.83-7.81-8-7.81-12.81a8.39,8.39,0,0,1,2.66-7,7.27,7.27,0,0,1,6-2.66,10.1,10.1,0,0,1,6.82,2.66l1.17-2.16Z" transform="translate(-340 1469)"/><path class="cls-3" d="M770.57-1419.95c0,2.49-1.17,3.82-3.66,4l1.16,3.16a4.17,4.17,0,0,0,3.33,1.49l3-1.33.83-4.65v-30.43c-.17-1.66-.83-2.49-2.33-2.49h-1.16v-1.66h12.8v1.66h-1.16c-1.5,0-2.33.83-2.16,2.49v29.27c-.17,6-3.33,9-9.48,9.14a6.85,6.85,0,0,1-5.16-2.33,9,9,0,0,1-2.66-6.81l1.33-3.33,2.17-1.16a2.92,2.92,0,0,1,3.16,3" transform="translate(-340 1469)"/><path class="cls-3" d="M829.42-1436.46a7.22,7.22,0,0,0,7.22-7.22,7.22,7.22,0,0,0-7.22-7.22,7.23,7.23,0,0,0-7.23,7.22,7.23,7.23,0,0,0,7.23,7.22" transform="translate(-340 1469)"/><path class="cls-3" d="M821.08-1436.46a7.22,7.22,0,0,1-7.22-7.22,7.22,7.22,0,0,1,7.22-7.22Z" transform="translate(-340 1469)"/><path class="cls-3" d="M837.75-1428.49v-6.85h6.86a6.85,6.85,0,0,1-6.86,6.85" transform="translate(-340 1469)"/><path class="cls-3" d="M821.08-1458.87v6.86h-6.87a6.87,6.87,0,0,1,6.87-6.86" transform="translate(-340 1469)"/><path class="cls-3" d="M821.08-1428.48v-6.86h-6.86a6.86,6.86,0,0,0,6.86,6.86" transform="translate(-340 1469)"/><path class="cls-3" d="M846.1-1437.47v-12.41a7.21,7.21,0,0,1,3.53,6.21,7.22,7.22,0,0,1-3.52,6.2" transform="translate(-340 1469)"/><path class="cls-3" d="M823.21-1460.35h12.41a7.19,7.19,0,0,0-6.2-3.53,7.21,7.21,0,0,0-6.21,3.53" transform="translate(-340 1469)"/><path class="cls-3" d="M835.53-1427H823.12a7.21,7.21,0,0,0,6.2,3.53,7.21,7.21,0,0,0,6.21-3.53" transform="translate(-340 1469)"/><path class="cls-3" d="M836.64-1435.34a7.22,7.22,0,0,1-7.22,7.22,7.23,7.23,0,0,1-7.23-7.22Z" transform="translate(-340 1469)"/><path class="cls-3" d="M837.75-1436.46a7.23,7.23,0,0,0,7.23-7.22,7.23,7.23,0,0,0-7.23-7.22Z" transform="translate(-340 1469)"/><path class="cls-3" d="M836.64-1452a7.22,7.22,0,0,0-7.22-7.22,7.23,7.23,0,0,0-7.23,7.22Z" transform="translate(-340 1469)"/><path class="cls-3" d="M812.74-1437.47v-12.41a7.23,7.23,0,0,0-3.53,6.21,7.23,7.23,0,0,0,3.53,6.2" transform="translate(-340 1469)"/><path class="cls-3" d="M844.61-1452h-6.86v-6.85a6.86,6.86,0,0,1,6.86,6.85" transform="translate(-340 1469)"/><path class="cls-3" d="M828.63-1410.48h.62c.62,0,1.36-.15,1.36-.92s-.7-1-1.36-1h-.62Zm0-2.89h.54c.56,0,1.25-.12,1.25-.8s-.68-.82-1.28-.82h-.51Zm-1.32-2.66h2.3c.85,0,2.13.25,2.13,1.69a1.47,1.47,0,0,1-1.32,1.47v0a1.53,1.53,0,0,1,1.51,1.5c0,1.66-1.49,1.91-2.32,1.91h-2.3Z" transform="translate(-340 1469)"/><path class="cls-3" d="M826.24-1409.53a6.86,6.86,0,0,1-1.5.2c-2.13,0-3.61-1.06-3.61-3.29a3.26,3.26,0,0,1,3.61-3.52,4.28,4.28,0,0,1,1.49.27l-.09,1.12a2.64,2.64,0,0,0-1.42-.35,2.19,2.19,0,0,0-2.21,2.38,2.17,2.17,0,0,0,2.23,2.36,3.7,3.7,0,0,0,1.45-.28Z" transform="translate(-340 1469)"/><path class="cls-3" d="M837.71-1409.53a6.86,6.86,0,0,1-1.5.2c-2.14,0-3.62-1.06-3.62-3.29a3.27,3.27,0,0,1,3.62-3.52,4.32,4.32,0,0,1,1.49.27l-.1,1.12a2.64,2.64,0,0,0-1.42-.35,2.19,2.19,0,0,0-2.21,2.38,2.17,2.17,0,0,0,2.24,2.36,3.65,3.65,0,0,0,1.44-.28Z" transform="translate(-340 1469)"/><path class="cls-3" d="M930.66-1429.32a5.09,5.09,0,0,1-1.34-.11c-.11-1.56-.22-8.12-.11-13.9a5,5,0,0,1,1.67-.33c2.44,0,3.78,2.89,3.78,6.45,0,4.44-1.67,7.89-4,7.89m2.55-16.12a8,8,0,0,0-4,1c0-3.55,0-6.78.11-7.89l-7.44,1.34v.66l.77.11c1,.23,1.34.78,1.56,2.12.22,2.66.11,16.89,0,19.22a28.55,28.55,0,0,0,6.22.78c5.89,0,9.45-3.67,9.45-9.45,0-4.55-2.89-7.89-6.67-7.89" transform="translate(-340 1469)"/><path class="cls-3" d="M893.87-1451.88H874.31v1l1.11.11c1.44.22,2,1.11,2.22,3.22a128.1,128.1,0,0,1,0,14.67c-.22,2.11-.78,3.11-2.22,3.22l-1.11.23v.89h12.56v-.89l-1.34-.23c-1.44-.11-2-1.11-2.22-3.22-.11-1.44-.22-3.78-.22-6.67l2.66.11c1.67,0,2.45,1.34,2.78,3.23h1v-7.89h-1c-.33,1.89-1.11,3.22-2.78,3.22l-2.66.11c0-3.78.11-7.33.22-9.45h3.89c3,0,4.56,1.89,5.67,5.23l1.11-.34Z" transform="translate(-340 1469)"/><path class="cls-3" d="M899.87-1444.55c-2.44,0-3.11,3.34-3.11,7.67s1.11,7.67,3.33,7.67c2.56,0,3.23-3.33,3.23-7.67s-1.12-7.67-3.45-7.67m.33-1.11c5.56,0,8.34,3.78,8.34,8.78,0,4.78-3.11,8.78-8.67,8.78s-8.34-3.78-8.34-8.78c0-4.78,3.12-8.78,8.67-8.78" transform="translate(-340 1469)"/><path class="cls-3" d="M946.44-1438.88l5.22-.11c0-2.22-.33-5.56-2.22-5.56s-2.89,3.11-3,5.67m-5.11,2.11c0-4.55,2.88-8.89,8.55-8.89,4.67,0,6.89,3.45,6.89,8H946.44c-.11,4.12,1.89,7.12,5.89,7.12a5.7,5.7,0,0,0,3.78-1.23l.44.56a8.3,8.3,0,0,1-6.67,3.11,8.25,8.25,0,0,1-8.55-8.67" transform="translate(-340 1469)"/><path class="cls-3" d="M970-1444.77a13.49,13.49,0,0,0-5.11-.89c-4.11,0-6.67,2.44-6.67,5.33s1.89,4.12,4.56,5,3.55,1.77,3.55,3.11a2.57,2.57,0,0,1-2.78,2.55c-2.11,0-3.66-1.22-4.89-4.55l-.77.22.11,4.89a17.43,17.43,0,0,0,5.89,1c4.33,0,7.11-2.22,7.11-5.67,0-2.33-1.22-3.67-4.11-4.78-3.11-1.22-4.23-2-4.23-3.44a2.32,2.32,0,0,1,2.34-2.45c2,0,3.33,1.22,4.33,4.23l.78-.23Z" transform="translate(-340 1469)"/><path class="cls-3" d="M923-1445.22c-1.89-1.11-5.23-.55-7,3.45l.12-3.89-7.45,1.44v.67l.78.11c1,.12,1.44.67,1.55,2.12a91.49,91.49,0,0,1,0,9.66c-.11,1.34-.55,2-1.55,2.12l-.78.11v.89H919v-.89l-1.34-.11c-1.11-.12-1.44-.78-1.55-2.12a77.62,77.62,0,0,1-.12-9c.56-.78,3-1.44,5.23,0Z" transform="translate(-340 1469)"/></g></g></svg>