<svg xmlns="http://www.w3.org/2000/svg" viewBox="0 0 15.19 20.15"><defs><style>.cls-1{fill:#fff;}.cls-2{fill:none;stroke:#fff;stroke-linejoin:round;stroke-width:1.3px;}</style></defs><title>Asset 3</title><g id="Layer_2" data-name="Layer 2"><g id="Layer_1-2" data-name="Layer 1"><path class="cls-1" d="M474-930c1.42-1.08,2.8-2.21,4.18-3.33a29,29,0,0,1-2.73-2.16c-1.48-1.24-2.74-2.71-4.19-4a5,5,0,0,1-1.57-1.85.71.71,0,0,1,.58-1s0,0,0,0c1.38-.21,2.19.85,3.29,1.61,2.24,1.54,5.23,5,8.18,5.05,2,0,2.34,2.42.94,3.49-1.67,1.27-3.24,2.86-5,4s-3,2.89-4.69,4.25-3.95-.78-2.4-2.41A31.14,31.14,0,0,1,474-930" transform="translate(-469 943)"/><path class="cls-2" d="M474-930c1.42-1.08,2.8-2.21,4.18-3.33a29,29,0,0,1-2.73-2.16c-1.48-1.24-2.74-2.71-4.19-4a5,5,0,0,1-1.57-1.85.71.71,0,0,1,.58-1s0,0,0,0c1.38-.21,2.19.85,3.29,1.61,2.24,1.54,5.23,5,8.18,5.05,2,0,2.34,2.42.94,3.49-1.67,1.27-3.24,2.86-5,4s-3,2.89-4.69,4.25-3.95-.78-2.4-2.41A31.14,31.14,0,0,1,474-930Z" transform="translate(-469 943)"/></g></g></svg>