<svg xmlns="http://www.w3.org/2000/svg" viewBox="0 0 45.65 36.64"><defs><style>.cls-1{fill:#231f20;}</style></defs><title>Asset 1</title><g id="Layer_2" data-name="Layer 2"><g id="Layer_1-2" data-name="Layer 1"><path class="cls-1" d="M361.09-1529c.35-2.5.21-5.09.73-7.55a1.54,1.54,0,0,0-1.46-1.92,7.37,7.37,0,0,1-8.07-6.4c-.52-4.88,4-7.1,8.15-7.51,3.9-.4,9.77.14,12.1,3.85a6.27,6.27,0,0,1,.52,5.66c-.87,2.11-2.46,2.74-4.54,3.28a2.12,2.12,0,0,0-1.53,2c-.07,2.88-.88,6.26-.05,9.06a1.54,1.54,0,0,0,2.78.36c1.51-2.74,1.42-6.36,1.45-9.42l-1.53,2a10.57,10.57,0,0,0,6.08-5.34,9.44,9.44,0,0,0,.27-7.75c-2.49-6.13-10.5-7.5-16.33-6.77-5.61.71-10.94,4.17-10.51,10.46a10.37,10.37,0,0,0,11.21,9.52l-1.46-1.11c.5,2.47.4,5,.83,7.55.11.67,1.27.69,1.36,0" transform="translate(-340 1563)"/><path class="cls-1" d="M360.09-1532.94c3-.19,6.66-.26,9.18-2,.5-.33.52-1.28-.18-1.4-3-.54-6.37.81-9.21,1.85-.75.28-.71,1.56.21,1.51" transform="translate(-340 1563)"/><path class="cls-1" d="M360.53-1529.76a9,9,0,0,0,2.88-.1,5.31,5.31,0,0,0,2.75-.92.9.9,0,0,0-.39-1.49,5.18,5.18,0,0,0-2.75.28,9,9,0,0,0-2.64,1c-.43.28-.44,1.11.15,1.2" transform="translate(-340 1563)"/><path class="cls-1" d="M362.39-1526.54a8.36,8.36,0,0,1,1.41,0c.67,0,1.35-.09,2-.16,1-.1,2.18-.07,2.68-1.09a.8.8,0,0,0-.12-.93c-1.05-1.19-3.54-.27-4.87,0-.82.19-3.06.69-2.09,2a.63.63,0,0,0,1,.12" transform="translate(-340 1563)"/><path class="cls-1" d="M346.52-1539.54c-.62.34-1.23.66-1.83,1a3.76,3.76,0,0,0-1.49,1.6.89.89,0,0,0,.52,1.29,3,3,0,0,0,2.55-.41,9.08,9.08,0,0,0,1-.76,5.89,5.89,0,0,0,.88-1.11c.74-1-.66-2.18-1.63-1.64" transform="translate(-340 1563)"/><path class="cls-1" d="M345.26-1547.3a16.68,16.68,0,0,0-2-1,7,7,0,0,1-1.57-.71,1,1,0,0,0-1.47.18c-1.18,2.2,3.13,2.85,4.44,3a.82.82,0,0,0,.62-1.49" transform="translate(-340 1563)"/><path class="cls-1" d="M350.06-1554.8c-.28-.67-.73-1.26-1.07-1.91a12.93,12.93,0,0,0-1.12-2,1.11,1.11,0,0,0-1.88.78,5.48,5.48,0,0,0,3.2,4,.71.71,0,0,0,.87-.87" transform="translate(-340 1563)"/><path class="cls-1" d="M360.09-1558.73c-.08-.51,0-1.1,0-1.63a8.77,8.77,0,0,0-.14-1.85,1.11,1.11,0,0,0-2.17.29,4.55,4.55,0,0,0,.45,1.94,9.92,9.92,0,0,0,1,1.64.52.52,0,0,0,.94-.39" transform="translate(-340 1563)"/><path class="cls-1" d="M370.89-1557c.81-.06,1.11-.71,1.35-1.39a8.1,8.1,0,0,0,.55-2.11,1.24,1.24,0,0,0-1.09-1.24,1.29,1.29,0,0,0-1.39.91,7.7,7.7,0,0,0-.4,2.24c0,.61.14,1.64,1,1.59" transform="translate(-340 1563)"/><path class="cls-1" d="M377.83-1553c.89-.41,1.91-.61,2.83-.94.72-.26,1.84-1,1.3-2s-1.66-.58-2.38-.21a19.31,19.31,0,0,0-2.54,1.78.78.78,0,0,0,.79,1.35" transform="translate(-340 1563)"/><path class="cls-1" d="M379.2-1542.24c1,.68,1.71,1.69,2.86,2.12a2.81,2.81,0,0,0,3.28-.68,1.05,1.05,0,0,0,0-1.48,3.23,3.23,0,0,0-2.91-.71c-1.14.22-2,.84-3.22.71,0,0,0,0,0,0" transform="translate(-340 1563)"/><path class="cls-1" d="M364.32-1545.21c-.7-.35-2.2-1.24-1.13-2.1a.81.81,0,0,1,1.2.17c.43.57,0,.88-.43,1.17-.92.56-.33,2.24.76,1.82a2.67,2.67,0,0,0,1.67-3.67,2.93,2.93,0,0,0-3.95-1.54,3,3,0,0,0-1.46,3.85c.58,1.26,2.29,2.13,3.44,1.09a.51.51,0,0,0-.1-.79" transform="translate(-340 1563)"/><path class="cls-1" d="M364.39-1544.5l-.05,0c.08.33.17.65.25,1a.36.36,0,0,0,0-.09l-.67.39H364l-.83-.84c.17,1.85-.09,4.07.86,5.75a.79.79,0,0,0,1.42-.18,10,10,0,0,0,0-4.19c-.12-.86-.17-2.37-1.43-2.22a.86.86,0,0,0-.8.61.81.81,0,0,0,.12.77.74.74,0,0,0,1,.26l.05,0a.68.68,0,0,0,0-1.17" transform="translate(-340 1563)"/></g></g></svg>