<svg xmlns="http://www.w3.org/2000/svg" viewBox="0 0 41.58 27.05"><defs><style>.cls-1{fill:#fff;}</style></defs><title>Asset 3</title><g id="Layer_2" data-name="Layer 2"><g id="Layer_1-2" data-name="Layer 1"><path class="cls-1" d="M501.77-680.34c-.21-3.33-2.45-5.5-5.69-6.1a9.59,9.59,0,0,0-9.13,3.05c-.1.12-.19.25-.28.38a16,16,0,0,1,1-4.78,7.08,7.08,0,0,1,2.92-3.73c1.22-.69,3.84-1.28,5,0a.77.77,0,0,0,1.07,0c1.66-2-.69-3.76-2.53-4.25a8.65,8.65,0,0,0-7.39,1.8,12.53,12.53,0,0,0-4.2,7.67c-.58,3-.94,6.54.54,9.34,2.59,4.88,10.65,7.35,15.38,4.28,2.51-1.63,3.55-4.77,3.37-7.66" transform="translate(-460.21 696)"/><path class="cls-1" d="M473.27-684.84c-3.16-.27-7.32,1-8.14,4.41L465-680a13.29,13.29,0,0,1,1-6.06,6.92,6.92,0,0,1,4.08-4.32c1.44-.43,2.61.1,4,.56a.76.76,0,0,0,.93-.52c.39-2.29-1.45-3.55-3.52-3.83a8.55,8.55,0,0,0-7.45,2.95c-3.87,4.23-5.24,12.44-2,17.34,3.49,5.24,10.16,6.65,15.16,2.54a8.83,8.83,0,0,0,2.72-8.19c-.51-3.36-3.5-5-6.66-5.31" transform="translate(-460.21 696)"/></g></g></svg>