<svg xmlns="http://www.w3.org/2000/svg" viewBox="0 0 39.28 25.56"><defs><style>.cls-1{fill:#fff;}</style></defs><title>Asset 4</title><g id="Layer_2" data-name="Layer 2"><g id="Layer_1-2" data-name="Layer 1"><path class="cls-1" d="M452.28-503.51a6.09,6.09,0,0,0,5.37,5.76,9.05,9.05,0,0,0,8.63-2.88l.26-.36a15,15,0,0,1-.92,4.51,6.59,6.59,0,0,1-2.75,3.53c-1.16.66-3.63,1.22-4.7,0a.72.72,0,0,0-1,0c-1.56,1.84.65,3.56,2.4,4a8.15,8.15,0,0,0,7-1.69,11.84,11.84,0,0,0,4-7.25c.54-2.84.89-6.17-.51-8.82-2.44-4.62-10.06-6.95-14.53-4.05-2.38,1.54-3.35,4.51-3.18,7.24" transform="translate(-452.26 514.27)"/><path class="cls-1" d="M479.2-499.26c3,.26,6.92-.9,7.69-4.16l.09-.41a12.51,12.51,0,0,1-.93,5.72A6.53,6.53,0,0,1,482.2-494c-1.37.41-2.46-.09-3.75-.53a.72.72,0,0,0-.87.5c-.37,2.17,1.37,3.35,3.32,3.62a8.09,8.09,0,0,0,7-2.79c3.66-4,5-11.75,1.86-16.39-3.3-4.94-9.6-6.28-14.32-2.4a8.33,8.33,0,0,0-2.57,7.74c.48,3.17,3.3,4.76,6.29,5" transform="translate(-452.26 514.27)"/></g></g></svg>