<svg xmlns="http://www.w3.org/2000/svg" viewBox="0 0 234.39 109.27"><defs><style>.cls-1{fill:#231f20;}.cls-2{fill:#ed1b2f;}</style></defs><title>Asset 1</title><g id="Layer_2" data-name="Layer 2"><g id="Layer_1-2" data-name="Layer 1"><path class="cls-1" d="M102.15-1441c-.67.12-1.5.22-2.5.32s-2.17.15-3.51.15a25,25,0,0,1-3.36-.24,7.85,7.85,0,0,1-3.27-1.2,7.12,7.12,0,0,1-2.47-3,13.06,13.06,0,0,1-1-5.57v-12.13H81.59v-6.72h4.47v-8.43h9v8.43h6.48v6.72H95v10.11a8.61,8.61,0,0,0,.3,2.53,3.22,3.22,0,0,0,.82,1.44,2.8,2.8,0,0,0,1.24.68,6.18,6.18,0,0,0,1.53.17h1.71a6.83,6.83,0,0,0,1.53-.15Z" transform="translate(9 1488)"/><path class="cls-1" d="M131.88-1469.45v28.4h-9v-4.07a8.35,8.35,0,0,1-3.57,3.51,12.13,12.13,0,0,1-5.74,1.27,12.15,12.15,0,0,1-4.78-.86,7.81,7.81,0,0,1-3.18-2.38,8.36,8.36,0,0,1-1.76-3.8,27.81,27.81,0,0,1-.42-5.22v-16.85h9v14.55a10,10,0,0,0,1.09,5,4.11,4.11,0,0,0,3.92,1.92,4.66,4.66,0,0,0,4.15-2,9.18,9.18,0,0,0,1.33-5.24v-14.26Z" transform="translate(9 1488)"/><path class="cls-1" d="M154.1-1441c-.66.12-1.5.22-2.5.32s-2.17.15-3.5.15a25,25,0,0,1-3.36-.24,7.85,7.85,0,0,1-3.27-1.2,7.14,7.14,0,0,1-2.48-3,13.07,13.07,0,0,1-1-5.57v-12.13h-4.48v-6.72H138v-8.43h9v8.43h6.48v6.72H147v10.11a8.65,8.65,0,0,0,.29,2.53,3.23,3.23,0,0,0,.83,1.44,2.77,2.77,0,0,0,1.23.68,6.21,6.21,0,0,0,1.54.17h1.7a6.83,6.83,0,0,0,1.53-.15Z" transform="translate(9 1488)"/><path class="cls-1" d="M169.91-1448a6.9,6.9,0,0,0,2.8-.56,6.27,6.27,0,0,0,2.15-1.56,7.77,7.77,0,0,0,1.39-2.3,7.9,7.9,0,0,0,.5-2.83,7.94,7.94,0,0,0-.5-2.8,7.29,7.29,0,0,0-1.39-2.3,6.54,6.54,0,0,0-2.15-1.56,6.59,6.59,0,0,0-2.8-.59,6.42,6.42,0,0,0-2.77.59,6.74,6.74,0,0,0-2.12,1.56,6.69,6.69,0,0,0-1.35,2.3,8.15,8.15,0,0,0-.47,2.8,8.12,8.12,0,0,0,.47,2.83,7.08,7.08,0,0,0,1.35,2.3,6.45,6.45,0,0,0,2.12,1.56,6.72,6.72,0,0,0,2.77.56m0,7.71a17.17,17.17,0,0,1-6.57-1.2,15.15,15.15,0,0,1-4.94-3.24,14.09,14.09,0,0,1-3.13-4.75,15.42,15.42,0,0,1-1.09-5.77,15.42,15.42,0,0,1,1.09-5.77,14.09,14.09,0,0,1,3.13-4.75,15.15,15.15,0,0,1,4.94-3.24,17.17,17.17,0,0,1,6.57-1.21,17.26,17.26,0,0,1,6.63,1.21,15.09,15.09,0,0,1,5,3.24,13.91,13.91,0,0,1,3.12,4.75,15.23,15.23,0,0,1,1.09,5.77,15.23,15.23,0,0,1-1.09,5.77,13.91,13.91,0,0,1-3.12,4.75,15.09,15.09,0,0,1-5,3.24,17.26,17.26,0,0,1-6.63,1.2" transform="translate(9 1488)"/><path class="cls-1" d="M207.53-1461.26a14.83,14.83,0,0,0-1.59-.32,12,12,0,0,0-1.59-.09,8.12,8.12,0,0,0-5.95,2.18c-1.5,1.45-2.24,3.91-2.24,7.36V-1441h-9v-28.4h9v4.6a9.13,9.13,0,0,1,3.33-3.54,9.46,9.46,0,0,1,5.33-1.53,7.07,7.07,0,0,1,2.71.47Z" transform="translate(9 1488)"/><path class="cls-1" d="M69.91-1409.53a6.35,6.35,0,0,0,2.76-.59,6.63,6.63,0,0,0,2.12-1.56,7.18,7.18,0,0,0,1.39-2.3,7.94,7.94,0,0,0,.5-2.8,7.73,7.73,0,0,0-.5-2.77,7.59,7.59,0,0,0-1.39-2.29,6.6,6.6,0,0,0-2.12-1.6,6.34,6.34,0,0,0-2.76-.58,6.36,6.36,0,0,0-2.77.58,6.64,6.64,0,0,0-2.13,1.6,7.37,7.37,0,0,0-1.38,2.29,7.73,7.73,0,0,0-.5,2.77,7.94,7.94,0,0,0,.5,2.8,7,7,0,0,0,1.38,2.3,6.67,6.67,0,0,0,2.13,1.56,6.36,6.36,0,0,0,2.77.59m6.77,2.94a7.49,7.49,0,0,1-1.41,1.86,9,9,0,0,1-2,1.47,12.1,12.1,0,0,1-2.5,1,10.13,10.13,0,0,1-2.71.38,13.56,13.56,0,0,1-5.63-1.15,13.49,13.49,0,0,1-4.39-3.12,13.71,13.71,0,0,1-2.82-4.72,17,17,0,0,1-1-5.92,17.08,17.08,0,0,1,1-5.92,13.57,13.57,0,0,1,2.82-4.71,13.37,13.37,0,0,1,4.39-3.13,13.72,13.72,0,0,1,5.63-1.14,9.74,9.74,0,0,1,2.71.38,11.13,11.13,0,0,1,2.5,1,9.23,9.23,0,0,1,2,1.53,8.64,8.64,0,0,1,1.41,1.83v-16.91h9v41.24h-9Z" transform="translate(9 1488)"/><path class="cls-1" d="M103.09-1409.53a6.93,6.93,0,0,0,2.8-.56,6.11,6.11,0,0,0,2.15-1.56,7.54,7.54,0,0,0,1.38-2.3,7.65,7.65,0,0,0,.5-2.83,7.76,7.76,0,0,0-.5-2.8,6.94,6.94,0,0,0-1.38-2.29,6.83,6.83,0,0,0-2.15-1.57,6.62,6.62,0,0,0-2.8-.58,6.39,6.39,0,0,0-2.77.58,6.81,6.81,0,0,0-2.12,1.57,6.73,6.73,0,0,0-1.36,2.29,8.44,8.44,0,0,0-.47,2.8,8.32,8.32,0,0,0,.47,2.83,7.29,7.29,0,0,0,1.36,2.3,6.09,6.09,0,0,0,2.12,1.56,6.69,6.69,0,0,0,2.77.56m0,7.72a17.1,17.1,0,0,1-6.57-1.21,15.3,15.3,0,0,1-5-3.24,14,14,0,0,1-3.12-4.74,15.31,15.31,0,0,1-1.09-5.78,15.26,15.26,0,0,1,1.09-5.77,13.78,13.78,0,0,1,3.12-4.74,15.16,15.16,0,0,1,5-3.25,17.1,17.1,0,0,1,6.57-1.2,17.34,17.34,0,0,1,6.63,1.2,15.16,15.16,0,0,1,5,3.25,14.07,14.07,0,0,1,3.12,4.74,15.26,15.26,0,0,1,1.09,5.77,15.31,15.31,0,0,1-1.09,5.78,14.27,14.27,0,0,1-3.12,4.74,15.3,15.3,0,0,1-5,3.24,17.33,17.33,0,0,1-6.63,1.21" transform="translate(9 1488)"/><path class="cls-1" d="M141.5-1419.84a5.08,5.08,0,0,0-1.56-3.07,5.81,5.81,0,0,0-4-1.17,6.2,6.2,0,0,0-2.8.59,5.25,5.25,0,0,0-2,1.59,6.64,6.64,0,0,0-1.15,2.32,9.92,9.92,0,0,0-.39,2.8,9.82,9.82,0,0,0,.39,2.8,6.56,6.56,0,0,0,1.17,2.33,5.57,5.57,0,0,0,2.06,1.59,7.23,7.23,0,0,0,3,.59,5.49,5.49,0,0,0,3.53-1,5.84,5.84,0,0,0,1.77-2.8h9a14.52,14.52,0,0,1-1.42,4.5,11.38,11.38,0,0,1-2.88,3.63,13.64,13.64,0,0,1-4.45,2.41,18.66,18.66,0,0,1-6,.89,16.45,16.45,0,0,1-6.57-1.24,14.2,14.2,0,0,1-4.8-3.3,13.44,13.44,0,0,1-2.92-4.77,16.59,16.59,0,0,1-1-5.66,16.53,16.53,0,0,1,1-5.65,13.57,13.57,0,0,1,2.92-4.78,14.34,14.34,0,0,1,4.8-3.3,16.45,16.45,0,0,1,6.57-1.23,17.57,17.57,0,0,1,6.24,1,13.63,13.63,0,0,1,4.45,2.65,11.66,11.66,0,0,1,2.77,3.8,14.3,14.3,0,0,1,1.21,4.45Z" transform="translate(9 1488)"/><path class="cls-1" d="M171.86-1402.58c-.67.12-1.5.23-2.51.33s-2.17.14-3.5.14a26.73,26.73,0,0,1-3.36-.23,7.86,7.86,0,0,1-3.27-1.21,7,7,0,0,1-2.47-3,13,13,0,0,1-1-5.56v-12.14H151.3V-1431h4.47v-8.42h9v8.42h6.48v6.72h-6.48v10.11a9,9,0,0,0,.29,2.53,3.23,3.23,0,0,0,.83,1.44,2.66,2.66,0,0,0,1.24.68,6.18,6.18,0,0,0,1.53.17h1.71a6.88,6.88,0,0,0,1.53-.14Z" transform="translate(9 1488)"/><path class="cls-1" d="M187.73-1409.53a6.93,6.93,0,0,0,2.8-.56,6.11,6.11,0,0,0,2.15-1.56,7.54,7.54,0,0,0,1.38-2.3,7.65,7.65,0,0,0,.5-2.83,7.76,7.76,0,0,0-.5-2.8,6.94,6.94,0,0,0-1.38-2.29,6.83,6.83,0,0,0-2.15-1.57,6.62,6.62,0,0,0-2.8-.58,6.39,6.39,0,0,0-2.77.58,6.81,6.81,0,0,0-2.12,1.57,6.73,6.73,0,0,0-1.36,2.29,8.44,8.44,0,0,0-.47,2.8,8.32,8.32,0,0,0,.47,2.83,7.29,7.29,0,0,0,1.36,2.3,6.09,6.09,0,0,0,2.12,1.56,6.69,6.69,0,0,0,2.77.56m0,7.72a17.1,17.1,0,0,1-6.57-1.21,15.3,15.3,0,0,1-4.95-3.24,14.12,14.12,0,0,1-3.12-4.74,15.31,15.31,0,0,1-1.09-5.78,15.26,15.26,0,0,1,1.09-5.77,13.92,13.92,0,0,1,3.12-4.74,15.16,15.16,0,0,1,4.95-3.25,17.1,17.1,0,0,1,6.57-1.2,17.34,17.34,0,0,1,6.63,1.2,15.16,15.16,0,0,1,4.95,3.25,14.07,14.07,0,0,1,3.12,4.74,15.46,15.46,0,0,1,1.09,5.77,15.51,15.51,0,0,1-1.09,5.78,14.27,14.27,0,0,1-3.12,4.74,15.3,15.3,0,0,1-4.95,3.24,17.33,17.33,0,0,1-6.63,1.21" transform="translate(9 1488)"/><path class="cls-1" d="M225.39-1422.79c-.63-.15-1.16-.26-1.59-.32a11.78,11.78,0,0,0-1.59-.09,8.16,8.16,0,0,0-6,2.18c-1.49,1.45-2.24,3.91-2.24,7.36v11.08h-9V-1431h9v4.6a9.36,9.36,0,0,1,3.33-3.54,9.48,9.48,0,0,1,5.33-1.53,7.07,7.07,0,0,1,2.71.47Z" transform="translate(9 1488)"/><path class="cls-2" d="M8.29-1477.25a27,27,0,0,1,4.81.45l.78-.46c.33-.19,8.4-4.85,14.93-.91l.13.08a13.81,13.81,0,0,1,8.56-1.79,14.69,14.69,0,0,0-4.25-4c-11-1.1-19.23.7-24.36,5.33-.46.42-.88.85-1.27,1.28h.67m13.31-10c-9.55,0-17.15,5.88-19.46,8.5a23.17,23.17,0,0,0-3,3.85,24.31,24.31,0,0,1,7.45-2.2,17.39,17.39,0,0,1,1.84-1.94c5.06-4.57,12.93-6.47,23.41-5.65a25.23,25.23,0,0,0-2.85-1.36,23.06,23.06,0,0,0-7.36-1.2m6.89,12.7q1.26,0,2.61.12a8.84,8.84,0,0,0-2.22-2.76,8.7,8.7,0,0,0-2.75,2.66l-.05.1a23.28,23.28,0,0,1,2.41-.12m-14.33-2a15.55,15.55,0,0,1,6.9,3.36,16.64,16.64,0,0,1,4.15-1.13c.08-.18.17-.37.27-.55a9.31,9.31,0,0,1,2.77-2.76c-6.12-3.53-13.93,1-14,1l-.09,0m17.8,2.21,1.34.18a26.72,26.72,0,0,1,4.64,1.35,6.81,6.81,0,0,0,.78-1.76,6.84,6.84,0,0,0-.74-4.5,13.26,13.26,0,0,0-8.43,1.48,9.46,9.46,0,0,1,2.41,3.25m6.65,1.81a21.56,21.56,0,0,1,2.3,1.16,9.69,9.69,0,0,1,2.92-1.42,10.12,10.12,0,0,1,4.87-.19,13.82,13.82,0,0,0-5.4-4.54,20.61,20.61,0,0,0-4.41-1.4,7.57,7.57,0,0,1,.54,4.5,7.12,7.12,0,0,1-.82,1.89m11.07-.2a15,15,0,0,1,3.07,1.29A11.81,11.81,0,0,1,55-1470c-2.7-10.33-15.82-13.07-20.2-13.7a13.27,13.27,0,0,1,3.63,3.9,20.73,20.73,0,0,1,5.12,1.55c.07,0,4.24,1.9,6.09,5.46m-17.42-.83a9,9,0,0,1,.33,1.17,10.67,10.67,0,0,1,.17,3.16,7.87,7.87,0,0,0,4.76-3,25.76,25.76,0,0,0-4.35-1.25l-.91-.12m-6.53-.09a3.09,3.09,0,0,0,0,2.58c.8,1.54,3.25,2,4,2a12.63,12.63,0,0,0,2.34-.08,9.87,9.87,0,0,0-.14-3.13,8.53,8.53,0,0,0-.42-1.43,25.36,25.36,0,0,0-5.72,0m15.88,2.7a14.6,14.6,0,0,1,5.78,6.67,5.7,5.7,0,0,0,2-2.42,6.77,6.77,0,0,0-.17-5.41,9,9,0,0,0-7.56,1.16m-.64.48a6.47,6.47,0,0,0-1.09,1.07,3.47,3.47,0,0,0-.82,3.15,3.76,3.76,0,0,0,2.16,2.26,6.77,6.77,0,0,0,5.51.09,13.94,13.94,0,0,0-5.76-6.57m-34-5.94a14.78,14.78,0,0,0-3.16,8,8,8,0,0,0,2.34,6.65,7.46,7.46,0,0,0,.77.62c0-.08-.05-.16-.07-.24-.17-1.09-1.29-9.83,5.41-14.8a24.07,24.07,0,0,0-4.51-.3c-.23,0-.49,0-.78.08m14.08,4.2c-2.55,3.06-3.38,5.88-2.49,8.37a8.18,8.18,0,0,0,2.22,3.17,6.11,6.11,0,0,0,1.66-1.58,7.69,7.69,0,0,0,1-5.74,9.5,9.5,0,0,0-2.38-4.22m-1.34.54a11.54,11.54,0,0,0-1.46,1,10.42,10.42,0,0,0-3.86,6.58,8.83,8.83,0,0,0,1,4.93l.53-.06a11.39,11.39,0,0,0,4.23-1.09,8.93,8.93,0,0,1-2.24-3.3c-.88-2.47-.27-5.19,1.84-8.08M7.84-1460.6a14.8,14.8,0,0,0,6.63,1.46h0a9.65,9.65,0,0,1-.88-5,11,11,0,0,1,4.13-7.09,13.34,13.34,0,0,1,2.56-1.65,15.64,15.64,0,0,0-7.07-3.15c-7,4.64-5.87,13.44-5.71,14.46.09.33.19.65.29,1m13.49.41a20.92,20.92,0,0,0,4.57,2.72,21.32,21.32,0,0,0,2.45-3,20.13,20.13,0,0,0,3.55-7.85,13.24,13.24,0,0,1-2.3.06c-1.07-.13-3.62-.63-4.56-2.44a3.66,3.66,0,0,1-.13-2.8,15.19,15.19,0,0,0-3.28.9,10.07,10.07,0,0,1,2.49,4.46,8.27,8.27,0,0,1-1.1,6.34,7,7,0,0,1-1.69,1.66m26.31-3.43a15.16,15.16,0,0,1,.81,5.29,11.92,11.92,0,0,1-.55,4.09,15,15,0,0,0,4.18-3.38,14,14,0,0,0,3.44-9,15,15,0,0,0-.22-2.17,10.75,10.75,0,0,0-2.87-2,14.64,14.64,0,0,0-2.34-1,7.55,7.55,0,0,1-.06,5.38,6.65,6.65,0,0,1-2.39,2.85m-31.89,5.15a9.47,9.47,0,0,0,1,1.28,14.09,14.09,0,0,0,4.48,3,14.62,14.62,0,0,0,4.06-2.71,20.68,20.68,0,0,1-4.65-2.89,11.83,11.83,0,0,1-4.73,1.3l-.19,0m40.42-9.36c0,.38.07.77.08,1.17a14.58,14.58,0,0,1-3.62,9.52,15.52,15.52,0,0,1-3.6,3.08,13.35,13.35,0,0,0,6.87-2.8,6.07,6.07,0,0,0,2.32-4.33,9.15,9.15,0,0,0-2-6.64M30.7-1455.69a44.51,44.51,0,0,0,4.41,1.1,61.91,61.91,0,0,0,6.62.79c1.07-1.78,1.39-3.37.93-4.72-.83-2.48-4-3.4-4-3.41-2.28-.52-4.13-.24-5.47.82-1.92,1.53-2.34,4.3-2.44,5.42m11.85,1.93a37.12,37.12,0,0,0,4.41-.06,12.4,12.4,0,0,0,.76-4.49,14.26,14.26,0,0,0-.74-4.94,7.42,7.42,0,0,1-6-.07,4.53,4.53,0,0,1-2.61-2.74,4.09,4.09,0,0,1,.91-3.76,5.05,5.05,0,0,1,1-1.08,20.82,20.82,0,0,0-2.07-1,8.55,8.55,0,0,1-5.55,3.43,20.33,20.33,0,0,1-3.68,8.34,19.94,19.94,0,0,1-2.45,3c1.18.51,2.36.93,3.46,1.28.12-1.32.63-4.12,2.7-5.77,1.52-1.21,3.57-1.54,6.1-1,.16.05,3.61,1,4.57,3.89a6.14,6.14,0,0,1-.81,5m-44.12-20A11.91,11.91,0,0,0-3-1467.14c.46,5.31,4.75,9,6.57,10.3a25.27,25.27,0,0,0,6.93,3.15,23.05,23.05,0,0,1-3.28-6.4,8.46,8.46,0,0,1-1.6-1.16,8.63,8.63,0,0,1-2.58-7.21,15,15,0,0,1,2.87-7.83,22.2,22.2,0,0,0-7.5,2.57m13.22,20.31a15.56,15.56,0,0,0,8.69-.41,14.3,14.3,0,0,1-4.09-2.86,10.37,10.37,0,0,1-1.34-1.74,16.45,16.45,0,0,1-6.73-1.19,22,22,0,0,0,3.47,6.2m30.47.36c-.2.3-.42.61-.65.93a.64.64,0,0,0-.1.13,24.81,24.81,0,0,0,3.8-1c-1,0-2,0-3.05,0m-20.1-.81a33.9,33.9,0,0,0,7.93,2v-3.24a38.31,38.31,0,0,1-4-1.48,18.23,18.23,0,0,1-3.92,2.76m8.66,2a43.4,43.4,0,0,0,5.55.33,33.88,33.88,0,0,0,4-.33c.26-.29.46-.55.61-.75s.27-.36.39-.54c-1.88-.13-4-.38-6.28-.77a43.28,43.28,0,0,1-4.31-1Zm0,.73v3.66c4.76-.81,7.31-2.3,8.73-3.54-1,.11-2.06.19-3.16.22a45.16,45.16,0,0,1-5.57-.34M-2.73-1473a12.88,12.88,0,0,0-5.48,9,10,10,0,0,0,2.77,7.93c6,6.53,19.64,8.71,24.21,9.14a22.34,22.34,0,0,1-7.37-5.64,24.87,24.87,0,0,1-8.23-3.67c-1.92-1.4-6.39-5.23-6.88-10.84a12.15,12.15,0,0,1,1-5.89m23.54,26.14a53.13,53.13,0,0,0,9.14-.47v-3.87a33.65,33.65,0,0,1-8.8-2.28,15.23,15.23,0,0,1-8.58,1.1,22.24,22.24,0,0,0,8.24,5.52m2.16.75a32.58,32.58,0,0,0,7,1.27v-1.75a52.48,52.48,0,0,1-7,.48m7.71,1.32a28.29,28.29,0,0,0,3.33,0c5.58-.53,9.57-2.77,11.86-6.68.25-.43.47-.87.67-1.31a24.36,24.36,0,0,1-5.9,1.64c-1.32,1.41-4,3.44-10,4.44Zm0,22.2H30v-21.52a32.13,32.13,0,0,1-9.26-2l-.63,0c-2.16,0-19.13-1.88-26-9.46a10.65,10.65,0,0,1-3-8.43v-.1a13.73,13.73,0,0,1,6.82-10.14,22.86,22.86,0,0,1,3.72-5c2.95-3.34,14.36-11.92,27.6-7.49a25,25,0,0,1,4.35,2.2c1.29.12,20,2,22.44,15.47a9.94,9.94,0,0,1,3,7.92,6.92,6.92,0,0,1-2.57,4.86c-1.57,1.37-4.27,2.74-8.87,3.17-1.55,3.91-5.28,8.33-13.43,9.1a27,27,0,0,1-3.4,0Z" transform="translate(9 1488)"/><path class="cls-1" d="M30.33-1411.68a3.4,3.4,0,0,1-3.4-3.39,3.28,3.28,0,0,1,.42-1.62,4.71,4.71,0,0,1,.47-.83,11,11,0,0,0,2.42-4.54h.15a11,11,0,0,0,2.37,4.48,4.13,4.13,0,0,1,.36.59,3.34,3.34,0,0,1,.6,1.92,3.39,3.39,0,0,1-3.39,3.39m8.69-10a42.06,42.06,0,0,1-4.26-8,1.2,1.2,0,0,0-1.88-.47c-.89.75-2,2.24-2.39,5.13,0,.25-.07.51-.1.79h-.15c0-.28-.06-.54-.09-.79-.44-2.89-1.51-4.38-2.4-5.13a1.21,1.21,0,0,0-1.88.47,42.06,42.06,0,0,1-4.26,8,9.33,9.33,0,0,1-.71.89l-6.6-7.75c-3.14-4-6.27-3.78-8.18-3a1.6,1.6,0,0,0-.57,2.55l9.38,10.54,1.26,1.49-.07.18-1.55-.78c-1.11-.58-2.8-1.46-5.35-2.81-3.77-2-6.67-1.11-8.43,0a1.5,1.5,0,0,0,.12,2.62l13.33,6.65,1.3.72v.18c-.29-.07-.66-.14-1.12-.23-1.37-.28-3.48-.68-6.48-1.19a5.65,5.65,0,0,0-6.49,3.22,1.49,1.49,0,0,0,1.06,2.12l20.87,3.94a39.26,39.26,0,0,0,7.55.58,11.59,11.59,0,0,0,11.59-11.59c0-4.44-3.49-8.28-3.49-8.28" transform="translate(9 1488)"/><polygon class="cls-1" points="70.66 100.76 66.12 100.76 66.12 105.41 64.32 105.41 64.32 94.42 66.12 94.42 66.12 99.14 70.66 99.14 70.66 94.42 72.46 94.42 72.46 105.41 70.66 105.41 70.66 100.76"/><path class="cls-1" d="M69.05-1383.93a2.14,2.14,0,0,0,.89-.18,2.29,2.29,0,0,0,.68-.51,2.33,2.33,0,0,0,.44-.73,2.75,2.75,0,0,0,.16-.9,2.65,2.65,0,0,0-.16-.89,2.27,2.27,0,0,0-.44-.74,2.1,2.1,0,0,0-.68-.5,2,2,0,0,0-.89-.19,2,2,0,0,0-.88.19,2.07,2.07,0,0,0-.67.5,2.09,2.09,0,0,0-.43.74,2.64,2.64,0,0,0-.15.89,2.74,2.74,0,0,0,.15.9,2.14,2.14,0,0,0,.43.73,2.25,2.25,0,0,0,.67.51,2.1,2.1,0,0,0,.88.18m0,1.53a4,4,0,0,1-1.58-.31,3.46,3.46,0,0,1-1.21-.84,3.74,3.74,0,0,1-.78-1.22,4.05,4.05,0,0,1-.27-1.48,4.08,4.08,0,0,1,.27-1.47,3.78,3.78,0,0,1,.78-1.23,3.75,3.75,0,0,1,1.21-.84,4,4,0,0,1,1.58-.3,4,4,0,0,1,1.59.3,3.84,3.84,0,0,1,1.23.84,3.78,3.78,0,0,1,.78,1.23,3.88,3.88,0,0,1,.28,1.47,3.86,3.86,0,0,1-.28,1.48,3.74,3.74,0,0,1-.78,1.22,3.54,3.54,0,0,1-1.23.84,4,4,0,0,1-1.59.31" transform="translate(9 1488)"/><polygon class="cls-1" points="88.44 99.94 86.51 105.41 85.36 105.41 82.52 98.09 84.36 98.09 85.94 102.72 87.59 98.09 89.27 98.09 90.92 102.72 92.5 98.09 94.34 98.09 91.5 105.41 90.35 105.41 88.44 99.94"/><rect class="cls-1" x="99.41" y="94.42" width="1.71" height="10.99"/><path class="cls-1" d="M97.46-1388.81a2,2,0,0,0-1.34.46,1.68,1.68,0,0,0-.53,1.35h3.64a1.76,1.76,0,0,0-.5-1.33,1.73,1.73,0,0,0-1.27-.48m-1.87,3.08a3.46,3.46,0,0,0,.14.74,1.62,1.62,0,0,0,.34.6,1.52,1.52,0,0,0,.59.41,2.3,2.3,0,0,0,.89.15,1.69,1.69,0,0,0,1.07-.28,1.69,1.69,0,0,0,.48-.68h1.73a2.61,2.61,0,0,1-.34.9,2.72,2.72,0,0,1-.68.76,3.34,3.34,0,0,1-1,.53,3.89,3.89,0,0,1-1.27.2,4,4,0,0,1-1.61-.3,3.27,3.27,0,0,1-1.14-.82,3.38,3.38,0,0,1-.68-1.22,5,5,0,0,1-.23-1.51,4.45,4.45,0,0,1,.25-1.52,3.7,3.7,0,0,1,.69-1.23,3.13,3.13,0,0,1,1.14-.8,3.7,3.7,0,0,1,1.53-.29,3.46,3.46,0,0,1,1.33.25,3.38,3.38,0,0,1,1.08.69,3.17,3.17,0,0,1,.72,1.05,3.11,3.11,0,0,1,.26,1.3c0,.13,0,.28,0,.45a3.08,3.08,0,0,1-.07.62Z" transform="translate(9 1488)"/><path class="cls-1" d="M106-1383.93a2.14,2.14,0,0,0,.89-.18,2.17,2.17,0,0,0,.68-.51,2.16,2.16,0,0,0,.44-.73,2.75,2.75,0,0,0,.16-.9,2.65,2.65,0,0,0-.16-.89,2.11,2.11,0,0,0-.44-.74,2,2,0,0,0-.68-.5,2,2,0,0,0-.89-.19,2,2,0,0,0-.88.19,2,2,0,0,0-.67.5,2.09,2.09,0,0,0-.43.74,2.64,2.64,0,0,0-.15.89,2.74,2.74,0,0,0,.15.9,2.14,2.14,0,0,0,.43.73,2.13,2.13,0,0,0,.67.51,2.1,2.1,0,0,0,.88.18m3.88-6v7.32h-1.71v-1a2.42,2.42,0,0,1-1,.86,2.88,2.88,0,0,1-1.28.32,3.84,3.84,0,0,1-1.53-.31,3.44,3.44,0,0,1-1.18-.84,3.88,3.88,0,0,1-.77-1.22,4.05,4.05,0,0,1-.27-1.48,4.08,4.08,0,0,1,.27-1.47,3.93,3.93,0,0,1,.77-1.23,3.73,3.73,0,0,1,1.18-.84,3.83,3.83,0,0,1,1.53-.3,2.87,2.87,0,0,1,1.28.31,2.42,2.42,0,0,1,1,.86v-1Z" transform="translate(9 1488)"/><path class="cls-1" d="M116.85-1388.32l-.33-.06-.34,0a2.14,2.14,0,0,0-1.68.64,2.89,2.89,0,0,0-.58,2v3.16h-1.71v-7.32h1.71v1.18a1.73,1.73,0,0,1,.35-.48,2.76,2.76,0,0,1,.53-.41,3.19,3.19,0,0,1,.66-.28,2.55,2.55,0,0,1,.72-.1,1.84,1.84,0,0,1,.67.11Z" transform="translate(9 1488)"/><path class="cls-1" d="M118.14-1389.91h1.71v1a2.32,2.32,0,0,1,1-.9,3.19,3.19,0,0,1,1.42-.3,3,3,0,0,1,1.35.26,2.23,2.23,0,0,1,.85.72,2.69,2.69,0,0,1,.37.91,6.42,6.42,0,0,1,.1,1.26v4.35h-1.71v-3.78a4.06,4.06,0,0,0-.08-.88,1.93,1.93,0,0,0-.25-.7,1.38,1.38,0,0,0-.49-.47,1.61,1.61,0,0,0-.76-.17,1.49,1.49,0,0,0-1.33.64,2.72,2.72,0,0,0-.43,1.58v3.78h-1.71Z" transform="translate(9 1488)"/><path class="cls-1" d="M127.07-1389.91h1.71v7.32h-1.71Zm-.41-2.66a1.23,1.23,0,0,1,.37-.91,1.24,1.24,0,0,1,.89-.37,1.26,1.26,0,0,1,.9.37,1.23,1.23,0,0,1,.37.91,1.18,1.18,0,0,1-.37.88,1.22,1.22,0,0,1-.9.37,1.2,1.2,0,0,1-.89-.37,1.18,1.18,0,0,1-.37-.88" transform="translate(9 1488)"/><path class="cls-1" d="M131.07-1389.91h1.71v1a2.32,2.32,0,0,1,1-.9,3.2,3.2,0,0,1,1.43-.3,3,3,0,0,1,1.34.26,2.16,2.16,0,0,1,.85.72,2.69,2.69,0,0,1,.37.91,6.34,6.34,0,0,1,.11,1.26v4.35h-1.72v-3.78a4.83,4.83,0,0,0-.07-.88,2.13,2.13,0,0,0-.26-.7,1.3,1.3,0,0,0-.49-.47,1.58,1.58,0,0,0-.76-.17,1.49,1.49,0,0,0-1.33.64,2.8,2.8,0,0,0-.43,1.58v3.78h-1.71Z" transform="translate(9 1488)"/><path class="cls-1" d="M143.3-1388.57a1.93,1.93,0,0,0-.88.19,2.1,2.1,0,0,0-.68.5,2.25,2.25,0,0,0-.43.74,2.64,2.64,0,0,0-.15.89,2.64,2.64,0,0,0,.15.89,2.25,2.25,0,0,0,.43.74,2.1,2.1,0,0,0,.68.5,1.93,1.93,0,0,0,.88.19,2,2,0,0,0,.88-.19,2,2,0,0,0,.69-.5,2.46,2.46,0,0,0,.44-.74,2.64,2.64,0,0,0,.15-.89,2.64,2.64,0,0,0-.15-.89,2.46,2.46,0,0,0-.44-.74,2,2,0,0,0-.69-.5,2,2,0,0,0-.88-.19m3.9,6.34a4.18,4.18,0,0,1-.27,1.58,2.79,2.79,0,0,1-.78,1.09,3.13,3.13,0,0,1-1.22.62,5.9,5.9,0,0,1-1.65.21,4.51,4.51,0,0,1-1.6-.26,3.41,3.41,0,0,1-1.13-.68,3.29,3.29,0,0,1-.7-1,3.12,3.12,0,0,1-.27-1.12h1.72a1.62,1.62,0,0,0,.55,1,2,2,0,0,0,1.42.45,2.55,2.55,0,0,0,1.61-.46,1.8,1.8,0,0,0,.58-1.5v-1.35a2.36,2.36,0,0,1-1,.86,2.85,2.85,0,0,1-1.28.32,3.79,3.79,0,0,1-1.52-.31,3.58,3.58,0,0,1-1.18-.84,3.88,3.88,0,0,1-.77-1.22,3.86,3.86,0,0,1-.28-1.48,3.88,3.88,0,0,1,.28-1.47,3.93,3.93,0,0,1,.77-1.23,3.44,3.44,0,0,1,1.18-.84,3.78,3.78,0,0,1,1.52-.3,2.84,2.84,0,0,1,1.28.31,2.36,2.36,0,0,1,1,.86v-1h1.71Z" transform="translate(9 1488)"/><path class="cls-1" d="M153.34-1393.58h1.71v4.69a2.32,2.32,0,0,1,1-.9,3.2,3.2,0,0,1,1.43-.3,3,3,0,0,1,1.34.26,2.16,2.16,0,0,1,.85.72,2.5,2.5,0,0,1,.37.91,6.34,6.34,0,0,1,.11,1.26v4.35h-1.72v-3.78a4.83,4.83,0,0,0-.07-.88,1.93,1.93,0,0,0-.26-.7,1.38,1.38,0,0,0-.49-.47,1.58,1.58,0,0,0-.76-.17,1.49,1.49,0,0,0-1.33.64,2.8,2.8,0,0,0-.43,1.58v3.78h-1.71Z" transform="translate(9 1488)"/><path class="cls-1" d="M162.27-1389.91H164v7.32h-1.71Zm-.41-2.66a1.23,1.23,0,0,1,.37-.91,1.24,1.24,0,0,1,.89-.37,1.26,1.26,0,0,1,.9.37,1.27,1.27,0,0,1,.37.91,1.22,1.22,0,0,1-.37.88,1.22,1.22,0,0,1-.9.37,1.2,1.2,0,0,1-.89-.37,1.18,1.18,0,0,1-.37-.88" transform="translate(9 1488)"/><path class="cls-1" d="M170.32-1382.59l-.55.06q-.35,0-.72,0a6.71,6.71,0,0,1-.72,0,1.85,1.85,0,0,1-.78-.31,1.88,1.88,0,0,1-.62-.77,3.48,3.48,0,0,1-.25-1.44v-3.41h-1.24v-1.43h1.24v-2.21h1.71v2.21h1.68v1.43h-1.68v3a3.52,3.52,0,0,0,.07.75,1.06,1.06,0,0,0,.21.44.77.77,0,0,0,.34.19,2,2,0,0,0,.45,0h.47a1.18,1.18,0,0,0,.39,0Z" transform="translate(9 1488)"/><path class="cls-1" d="M175.11-1386.72c.25.09.49.19.74.3a2.44,2.44,0,0,1,.64.39,1.85,1.85,0,0,1,.45.56,2,2,0,0,1,.16.84,2.06,2.06,0,0,1-.23,1,1.85,1.85,0,0,1-.63.7,2.63,2.63,0,0,1-.93.41,4.55,4.55,0,0,1-1.13.13,3.52,3.52,0,0,1-1.13-.17,2.82,2.82,0,0,1-1-.51,2.34,2.34,0,0,1-.66-.83,2.58,2.58,0,0,1-.24-1.14h1.66a1.21,1.21,0,0,0,.4,1,1.73,1.73,0,0,0,1,.29,1.8,1.8,0,0,0,.84-.19.7.7,0,0,0,.35-.66.6.6,0,0,0-.14-.41,1.53,1.53,0,0,0-.43-.29,6.74,6.74,0,0,0-.7-.28c-.29-.09-.62-.21-1-.36a6.4,6.4,0,0,1-.7-.3,2.47,2.47,0,0,1-.55-.39,1.32,1.32,0,0,1-.36-.55,2.1,2.1,0,0,1-.13-.8,1.83,1.83,0,0,1,.22-.91,2.1,2.1,0,0,1,.6-.66,2.5,2.5,0,0,1,.87-.41,4,4,0,0,1,1.06-.13,3.28,3.28,0,0,1,1.09.18,2.85,2.85,0,0,1,.88.52,2.34,2.34,0,0,1,.6.79,2.17,2.17,0,0,1,.22,1h-1.66a1.15,1.15,0,0,0-.28-.82,1.16,1.16,0,0,0-.9-.31,1.32,1.32,0,0,0-.75.21.67.67,0,0,0-.3.6.6.6,0,0,0,.12.38,1.16,1.16,0,0,0,.38.27l.63.25.88.32" transform="translate(9 1488)"/><path class="cls-1" d="M182.83-1393.58h1.71v4.69a2.32,2.32,0,0,1,1-.9,3.19,3.19,0,0,1,1.42-.3,3,3,0,0,1,1.35.26,2.23,2.23,0,0,1,.85.72,2.69,2.69,0,0,1,.37.91,6.42,6.42,0,0,1,.1,1.26v4.35h-1.71v-3.78a4.06,4.06,0,0,0-.08-.88,1.76,1.76,0,0,0-.26-.7,1.27,1.27,0,0,0-.48-.47,1.61,1.61,0,0,0-.76-.17,1.49,1.49,0,0,0-1.33.64,2.72,2.72,0,0,0-.43,1.58v3.78h-1.71Z" transform="translate(9 1488)"/><path class="cls-1" d="M195.05-1383.93a2.14,2.14,0,0,0,.89-.18,2.17,2.17,0,0,0,.68-.51,2.16,2.16,0,0,0,.44-.73,2.51,2.51,0,0,0,.16-.9,2.42,2.42,0,0,0-.16-.89,2.11,2.11,0,0,0-.44-.74,2,2,0,0,0-.68-.5,2,2,0,0,0-.89-.19,1.92,1.92,0,0,0-.87.19,2,2,0,0,0-.68.5,2.09,2.09,0,0,0-.43.74,2.64,2.64,0,0,0-.15.89,2.74,2.74,0,0,0,.15.9,2.14,2.14,0,0,0,.43.73,2.17,2.17,0,0,0,.68.51,2.05,2.05,0,0,0,.87.18m0,1.53a4,4,0,0,1-1.58-.31,3.56,3.56,0,0,1-1.21-.84,4.1,4.1,0,0,1-.78-1.22,4.05,4.05,0,0,1-.27-1.48,4.08,4.08,0,0,1,.27-1.47,4.15,4.15,0,0,1,.78-1.23,3.86,3.86,0,0,1,1.21-.84,4,4,0,0,1,1.58-.3,4.11,4.11,0,0,1,1.6.3,3.9,3.9,0,0,1,1.22.84,4,4,0,0,1,.79,1.23,4.08,4.08,0,0,1,.27,1.47,4.05,4.05,0,0,1-.27,1.48,3.94,3.94,0,0,1-.79,1.22,3.6,3.6,0,0,1-1.22.84,4.11,4.11,0,0,1-1.6.31" transform="translate(9 1488)"/><path class="cls-1" d="M209.9-1382.59v-4.1a2.62,2.62,0,0,0-.32-1.39,1.15,1.15,0,0,0-1.05-.51,1.64,1.64,0,0,0-.6.11,1.17,1.17,0,0,0-.49.38,2,2,0,0,0-.33.7,4.63,4.63,0,0,0-.11,1.09v3.72h-1.71v-4.11a2.73,2.73,0,0,0-.31-1.39,1.12,1.12,0,0,0-1-.5,1.74,1.74,0,0,0-.61.11,1.11,1.11,0,0,0-.49.38,2,2,0,0,0-.34.7,3.69,3.69,0,0,0-.13,1.09v3.72h-1.71v-7.32h1.71v1a2.1,2.1,0,0,1,.78-.85,2.21,2.21,0,0,1,1.26-.35,2.65,2.65,0,0,1,1.54.37,2.15,2.15,0,0,1,.77.93,2.31,2.31,0,0,1,.86-.93,2.55,2.55,0,0,1,1.38-.37,3.05,3.05,0,0,1,1.34.25,2.35,2.35,0,0,1,.81.67,2.44,2.44,0,0,1,.39.92,5.07,5.07,0,0,1,.1,1v4.63Z" transform="translate(9 1488)"/><path class="cls-1" d="M216.84-1388.81a2,2,0,0,0-1.34.46A1.68,1.68,0,0,0,215-1387h3.64a1.76,1.76,0,0,0-.49-1.33,1.77,1.77,0,0,0-1.28-.48m-1.87,3.08a3.46,3.46,0,0,0,.14.74,1.62,1.62,0,0,0,.34.6,1.6,1.6,0,0,0,.59.41,2.3,2.3,0,0,0,.89.15,1.69,1.69,0,0,0,1.07-.28,1.82,1.82,0,0,0,.49-.68h1.72a2.42,2.42,0,0,1-.34.9,2.72,2.72,0,0,1-.68.76,3.34,3.34,0,0,1-1,.53,3.85,3.85,0,0,1-1.27.2,4,4,0,0,1-1.61-.3,3.27,3.27,0,0,1-1.14-.82,3.38,3.38,0,0,1-.68-1.22,5,5,0,0,1-.22-1.51,4.7,4.7,0,0,1,.24-1.52,3.55,3.55,0,0,1,.7-1.23,3.09,3.09,0,0,1,1.13-.8,3.75,3.75,0,0,1,1.54-.29,3.44,3.44,0,0,1,1.32.25,3.38,3.38,0,0,1,1.08.69,3.36,3.36,0,0,1,.73,1.05,3.27,3.27,0,0,1,.25,1.3v.45a5.87,5.87,0,0,1-.07.62Z" transform="translate(9 1488)"/><path class="cls-1" d="M221.92-1383.75a1.27,1.27,0,0,1,.37-.91,1.24,1.24,0,0,1,.89-.37,1.26,1.26,0,0,1,.9.37,1.23,1.23,0,0,1,.37.91,1.18,1.18,0,0,1-.37.88,1.22,1.22,0,0,1-.9.37,1.2,1.2,0,0,1-.89-.37,1.22,1.22,0,0,1-.37-.88" transform="translate(9 1488)"/></g></g></svg>