<svg xmlns="http://www.w3.org/2000/svg" viewBox="0 0 192.54 187.32"><defs><style>.cls-1{fill:#f0e146;}.cls-10,.cls-2,.cls-3{fill:#231f20;}.cls-10,.cls-3{font-size:15.24px;}.cls-3{font-family:GTWalsheim-Regular, GT Walsheim;}.cls-4{letter-spacing:0.01em;}.cls-5{letter-spacing:0em;}.cls-10,.cls-6{letter-spacing:0.01em;}.cls-7{letter-spacing:0.01em;}.cls-8{letter-spacing:-0.01em;}.cls-9{letter-spacing:-0.04em;}.cls-10{font-family:GTWalsheim-Bold, GT Walsheim;font-weight:700;}.cls-11{letter-spacing:0em;}.cls-12{letter-spacing:0.02em;}.cls-13{letter-spacing:0.01em;}.cls-14{letter-spacing:0em;}</style></defs><title>Asset 4</title><g id="Layer_2" data-name="Layer 2"><g id="Layer_1-2" data-name="Layer 1"><path class="cls-1" d="M184.23-798a65.34,65.34,0,0,1,1.14,21.28c-1.62,12.49-4.09,24.82-9.4,36.51a53.08,53.08,0,0,1-6.22,10.76c-1.74,2.24-3.38,4.55-5.06,6.83a68.55,68.55,0,0,1-17.38,16.22c-2.89,1.93-5.66,4-8.66,5.82-4.3,2.54-8.55,5.23-13.5,6.52a9.18,9.18,0,0,0-2.16.74,29.82,29.82,0,0,1-10,3.17,15,15,0,0,0-3.09.84A36.33,36.33,0,0,1,99.22-687c-6.22.5-12.43,1.19-18.71,1a87.5,87.5,0,0,1-19.83-2.58A102.75,102.75,0,0,1,46-693.33c-6.63-2.91-12.93-6.32-18.29-11.13-1.32-1.18-2.84-2.15-4.22-3.28-6.82-5.62-12.21-12.43-17.09-19.56-3.39-5-5.44-10.64-7.32-16.33-1.6-4.86-2.41-9.88-3.63-14.82a68.64,68.64,0,0,1-1.82-15.08c-.06-2.61-.47-5.23-.4-7.84a129.81,129.81,0,0,1,.9-13.07,77.91,77.91,0,0,1,2.4-10.7c2.12-7.5,4.67-14.87,8.66-21.72a114,114,0,0,1,10.39-15.57,51.81,51.81,0,0,1,9.07-8.74c2.43-1.79,4.62-4.07,7.33-5.25s5.58-2.38,8.26-3.79a6.08,6.08,0,0,1,2.18-.62,12.26,12.26,0,0,0,6.2-2.7c4.41-3.37,9.54-5.28,14.77-7A24,24,0,0,1,71-872a11.09,11.09,0,0,0,2.27-.32c7.28-1.48,14.55-1.13,21.84-.3,3.62.41,7.27.62,10.91.83a20,20,0,0,1,5.8,1c1.7.61,3.49,1,5.2,1.6a43.39,43.39,0,0,1,6.27,2.51c5.11,2.81,10.19,5.67,15.49,8.16a17.58,17.58,0,0,1,4.07,2.73,56,56,0,0,0,8.27,6,24.36,24.36,0,0,1,4.22,3.26c3.65,3.46,7.29,6.92,10.74,10.56a40.77,40.77,0,0,1,4.08,5.71c2.1,3.18,4.12,6.41,6.17,9.62a11.24,11.24,0,0,1,1.15,1.86c2.37,5.94,5.48,11.64,6.27,18.1.11.86.3,1.72.45,2.58" transform="translate(6.74 873.32)"/><path class="cls-2" d="M42.65-785.22l-.11,0c-8.4,1-14.58-4.31-16-12.34-1.51-8.54,3.19-16,12.52-17.6s16.28,3.72,17.79,12.26a16.73,16.73,0,0,1-1.41,10.22L47-774.56l-10.47,1.84Zm5.55-16.14c-.77-4.41-3.71-7.15-7.83-6.43s-5.95,4.32-5.17,8.73,3.71,7.16,7.84,6.43S49-797,48.2-801.36ZM64-789l8.88-1.56c.81,2.94,3.52,4.1,6.57,3.56,4-.71,5.84-3.94,5.07-8.3-.7-4-3.38-6.28-7-5.64-3,.53-4.88,2.08-5.55,4.88l-8,1.42-4.06-23,26.81-4.72L88-815.25,69.37-812l1.53,8.71c1.58-2.61,4.41-4.1,7.63-4.67,7.58-1.33,13.38,3.13,14.77,11,1.53,8.7-3.19,15.66-12.52,17.3C72.18-778.12,65.89-781.39,64-789Zm29.83-24C93-818,96-823.25,102.45-824.39s11.15,2.7,12,7.79-2.15,10.29-8.66,11.44S94.75-807.88,93.86-813Zm14.59-2.58c-.44-2.48-2.26-4.2-5.09-3.71s-4,2.74-3.51,5.23a4.13,4.13,0,0,0,5.08,3.65A4.14,4.14,0,0,0,108.45-815.54ZM105-786.13l20-43.4,4.68,1.74-19.93,43.4ZM120.23-797c-.9-5.09,2.09-10.28,8.6-11.43s11.14,2.7,12,7.79-2.15,10.29-8.65,11.44S121.13-791.88,120.23-797Zm14.59-2.57c-.44-2.49-2.26-4.21-5.09-3.71s-3.94,2.73-3.51,5.22a4.14,4.14,0,0,0,5.08,3.66A4.13,4.13,0,0,0,134.82-799.54Z" transform="translate(6.74 873.32)"/><text class="cls-3" transform="translate(23.48 122.25) rotate(-10)"><tspan class="cls-4">O</tspan><tspan class="cls-5" x="12.28" y="0">F </tspan><tspan class="cls-6" x="24.4" y="0">O</tspan><tspan class="cls-7" x="36.69" y="0">U</tspan><tspan class="cls-5" x="46.5" y="0">R </tspan><tspan class="cls-7" x="59.75" y="0">CU</tspan><tspan class="cls-8" x="81.44" y="0">S</tspan><tspan class="cls-9" x="89.7" y="0">T</tspan><tspan class="cls-6" x="97.05" y="0">O</tspan><tspan class="cls-4" x="109.34" y="0">M</tspan><tspan class="cls-6" x="121.91" y="0">E</tspan><tspan x="130.37" y="0">RS</tspan></text><text class="cls-10" transform="translate(38.54 136.76) rotate(-10)">R<tspan class="cls-11" x="10.06" y="0">E</tspan><tspan class="cls-12" x="18.53" y="0">C</tspan><tspan class="cls-7" x="30.69" y="0">O</tspan><tspan class="cls-13" x="43.03" y="0">MME</tspan><tspan class="cls-4" x="78.78" y="0">N</tspan><tspan class="cls-5" x="89.58" y="0">D</tspan><tspan class="cls-14" x="100.52" y="0"> </tspan><tspan x="104.28" y="0">U</tspan><tspan class="cls-11" x="114.63" y="0">S</tspan></text><path class="cls-2" d="M175.38-806a126.89,126.89,0,0,1,.9,14.09c.07,4.72,0,9.45-.35,14.16a122,122,0,0,1-5,27.84,79.8,79.8,0,0,1-12.17,24.41c-2.31-1.1-4.66-2.14-7-3.1a83,83,0,0,0,9.2-14.82,86.47,86.47,0,0,0,6.62-19.27,96.82,96.82,0,0,0,2.16-20.12A115.44,115.44,0,0,0,168-802.92,111.33,111.33,0,0,0,163-822.44a77.64,77.64,0,0,0-9.26-18.08,59.53,59.53,0,0,0-14.45-14.62,58.41,58.41,0,0,0-18.94-8.74,72.54,72.54,0,0,0-20.91-2.18,96,96,0,0,0-20.79,3.14,118.75,118.75,0,0,0-19.7,7.13,131.46,131.46,0,0,0-27.15,16.84,89.41,89.41,0,0,1,8.09-7.34A99.89,99.89,0,0,1,93.37-867.5a91.14,91.14,0,0,1,29,2,73,73,0,0,1,26.07,11.75A63.81,63.81,0,0,1,167-832.68,75.37,75.37,0,0,1,175.38-806m-27.25,91.49a49.63,49.63,0,0,1-12.36,7.19,37.54,37.54,0,0,1-13.26,2.77A89.82,89.82,0,0,0,134.62-712a86.26,86.26,0,0,0,15.15-14.16l.27-.33c2.39,1,4.76,2,7.09,3.09a59.57,59.57,0,0,1-9,8.89m-30.19,9.64a20.88,20.88,0,0,1-3-.69,13.39,13.39,0,0,1-5.68-3.33,8.5,8.5,0,0,1-2.42-5.65,13.31,13.31,0,0,1,1.51-6.33,19.42,19.42,0,0,1,3.87-5.56,17,17,0,0,1,5.69-3.69,23.12,23.12,0,0,1,6.79-1.52,36.8,36.8,0,0,1,7.11.19,66.68,66.68,0,0,1,14,3.39c.62.21,1.23.43,1.85.66a84.23,84.23,0,0,1-16.42,14.94,88,88,0,0,1-13.31,7.59m-12,4.54a88.33,88.33,0,0,1-26.66,3.71A78.76,78.76,0,0,1,54.36-701,69.81,69.81,0,0,1,38-709.41a63.69,63.69,0,0,0,15.83,3.15,53.76,53.76,0,0,0,14.88-.94c3.74-.81,5.92-1.84,5.79-2.28s-2.42-.25-6.1-.06a114.91,114.91,0,0,1-14.26,0s-.64,0-1.88-.16-3.06-.34-5.4-.78a58.31,58.31,0,0,1-8.46-2.27,51.8,51.8,0,0,1-10-4.81,67.33,67.33,0,0,1-8.29-10.46,75.46,75.46,0,0,1-8-17,91.33,91.33,0,0,1-3.72-16,109.92,109.92,0,0,1-1.09-13.79,99.7,99.7,0,0,1,1.42-18.72c.6-3.3,1.05-5.12,1.1-5.34a.45.45,0,0,1,0,.11A85.87,85.87,0,0,1,19.8-823.54l.2-.24a122.15,122.15,0,0,1,20.31-17.91,128,128,0,0,1,24.93-13.73,104.87,104.87,0,0,1,28.44-7.44,70.26,70.26,0,0,1,29.59,2.73,54.75,54.75,0,0,1,13.38,6.52,54.81,54.81,0,0,1,11.09,9.86c6.49,7.52,11,16.59,14,26a112.66,112.66,0,0,1,3.53,14.5,117.09,117.09,0,0,1,1.7,14.79,95,95,0,0,1-2.92,29.33,81.79,81.79,0,0,1-12.32,26.4c-.76,1.07-1.55,2.12-2.36,3.15q-1.31-.5-2.64-1A70.35,70.35,0,0,0,132.19-734a38.83,38.83,0,0,0-7.63-.18,25.33,25.33,0,0,0-7.58,1.71,19.59,19.59,0,0,0-6.55,4.27,22,22,0,0,0-4.38,6.28,15.89,15.89,0,0,0-1.73,7.48,11.07,11.07,0,0,0,.88,3.87,11.3,11.3,0,0,0,2.22,3.32,15.87,15.87,0,0,0,6.74,4h0q-4.09,1.66-8.27,2.9m-89-26.95a62.73,62.73,0,0,1-9.31-14.13,90,90,0,0,1-6.44-18.22Q.52-762.14,0-764.72c-.17-.86-.34-1.73-.49-2.6s-.27-1.72-.38-2.6A50.69,50.69,0,0,1-1-780.74,63.87,63.87,0,0,1,5.61-803a88,88,0,0,1,7.9-12.85,88.72,88.72,0,0,0-5.7,16.6,97.52,97.52,0,0,0-2.58,20,111.36,111.36,0,0,0,1.3,20.07,90.09,90.09,0,0,0,5.24,19.45,74,74,0,0,0,9,16.28,52.73,52.73,0,0,1-3.84-3.91M169-833.72a66,66,0,0,0-19.21-21.74,75.27,75.27,0,0,0-26.87-12.07,93.87,93.87,0,0,0-29.67-2,102,102,0,0,0-54.62,21.76,90.16,90.16,0,0,0-16.9,17.85,110.68,110.68,0,0,0-11,12.74A86.39,86.39,0,0,0,.51-799.3a63.44,63.44,0,0,0-4.82,19.91A53.34,53.34,0,0,0-4-769.13c.11.85.24,1.69.39,2.54l.46,2.48c.32,1.65.67,3.3,1.07,4.94A92.92,92.92,0,0,0,4.57-740,64.59,64.59,0,0,0,16.2-723.14a54.26,54.26,0,0,0,14.38,10.61,65,65,0,0,0,5.9,4.67A71,71,0,0,0,55-698.55a84.78,84.78,0,0,0,41.4,2.76A92.52,92.52,0,0,0,118-702.4a30.7,30.7,0,0,0,3.83.28,39.86,39.86,0,0,0,14.9-3,52,52,0,0,0,13-7.59,60.87,60.87,0,0,0,9.67-9.65,137.6,137.6,0,0,1,12.36,6.9l1.52-2.16A140.14,140.14,0,0,0,161-724.45a82.41,82.41,0,0,0,12.27-24.84,124.53,124.53,0,0,0,5-28.36c.32-4.78.41-9.57.33-14.35-.05-2.39-.13-4.77-.27-7.16s-.36-4.79-.68-7.17A77.63,77.63,0,0,0,169-833.72" transform="translate(6.74 873.32)"/></g></g></svg>